# Export of towers
# from Aaro4130 OBJ Exporter v2.0
mtllib HoneyTowerProjectile2.mtl
g HoneyProjectile
v -0.1716112 0.38674 0.305978
v 0.1823902 0.38674 0.305978
v -0.2210424 0.3779063 0.5298038
v 0.2318215 0.3146683 0.5298036
v -0.4474744 0.3314026 0.0003004892
v -0.348612 0.3859556 -0.0005873078
v -0.1716114 0.3851713 -0.3071527
v -0.2210426 0.3690423 -0.4638196
v 0.1823901 0.3851713 -0.3071528
v 0.2318213 0.3303992 -0.3918798
v 0.4582533 0.3314026 0.00030042
v 0.3593909 0.424911 -0.0005873563
v 0.1823902 0.38674 0.305978
v 0.2318215 0.3146683 0.5298036
v -0.2752476 0.260706 0.5260893
v 0.2671804 0.260706 0.5260892
v 0.3025394 0.1330248 0.5500312
v -0.3294528 0.1330248 0.5500314
v -0.5464617 0.2315136 0.001513231
v -0.6454489 0.1316245 0.002725973
v -0.329453 0.1302242 -0.5445795
v -0.2752478 0.2303117 -0.4682296
v 0.3025393 0.1302242 -0.5445795
v 0.2671803 0.2303117 -0.4682297
v 0.6185354 0.1316245 0.002725879
v 0.645449 0.3064634 0.001513159
v 0.2671804 0.260706 0.5260892
v 0.3025394 0.1330248 0.5500312
v -0.2682711 0.02750821 0.4791318
v 0.2790502 0.02750818 0.4791317
v -0.5419319 0.02629551 0.005151431
v -0.2682713 0.02508286 -0.4688291
v 0.2790501 0.02508286 -0.4688291
v 0.5527107 0.02629551 0.00515135
v 0.2790502 0.02750818 0.4791317
v 0.1633876 -0.05011046 0.2805796
v -0.1526086 -0.05011046 0.2805797
v -0.3106067 -0.05081061 0.006926964
v -0.1526086 -0.05151078 -0.2667257
v 0.1633875 -0.05151078 -0.2667258
v 0.3213856 -0.05081061 0.006926917
v 0.1633876 -0.05011046 0.2805796
v 0.005389431 -0.07903346 0.00757682
v 0.005389431 -0.07903346 0.00757682
v 0.005389431 -0.07903346 0.00757682
v 0.005389431 -0.07903346 0.00757682
v 0.005389431 -0.07903346 0.00757682
v 0.005389431 -0.07903346 0.00757682
v -0.1221801 0.441074 0.2194754
v 0.005389431 0.4687314 -0.002125046
v 0.132959 0.441074 0.2194753
v -0.2497496 0.497406 -0.1182996
v 0.005389431 0.4687314 -0.002125046
v -0.1221801 0.4399433 -0.2224256
v 0.005389431 0.4687314 -0.002125046
v 0.1329589 0.4399433 -0.2224257
v 0.005389431 0.4687314 -0.002125046
v 0.2157966 0.5790491 -0.001475124
v 0.005389431 0.4687314 -0.002125046
v 0.132959 0.441074 0.2194753
v 0.005389431 0.4687314 -0.002125046
vn -0.2736923 0.1983301 0.2115738
vn 0.3696398 0.1439603 0.3879817
vn -0.3274716 0.1014458 0.5232832
vn 0.3279421 0.08332873 0.5510402
vn -0.6505253 0.07454462 -0.02211233
vn -0.6108189 0.1046612 0.04470668
vn -0.3002108 0.1831387 -0.2858321
vn -0.308524 0.06568977 -0.5828044
vn 0.3418517 0.1165594 -0.4843006
vn 0.2950829 0.07048786 -0.5847168
vn 0.4601354 0.1678826 0.09109557
vn 0.6464289 0.07874596 -0.002333792
vn 0.3696398 0.1439603 0.3879817
vn 0.3279421 0.08332873 0.5510402
vn -0.3881063 0.02872196 0.5618125
vn 0.3864317 0.0210486 0.5660101
vn 0.3602431 -0.01011653 0.5856519
vn -0.3485241 -0.01079845 0.5925925
vn -0.6573426 0.06797387 -0.00083315
vn -0.6882277 -0.001720052 -0.0003735953
vn -0.3357111 -0.001434168 -0.6008027
vn -0.3343753 0.05249871 -0.5805796
vn 0.3522215 0.001875824 -0.5912637
vn 0.3424926 0.04680755 -0.5802282
vn 0.686397 -0.01675222 0.004183397
vn 0.6751027 0.04435004 0.01477178
vn 0.3864317 0.0210486 0.5660101
vn 0.3602431 -0.01011653 0.5856519
vn -0.3009187 -0.1028948 0.5365132
vn 0.3169284 -0.09643111 0.5380987
vn -0.6093706 -0.1065948 -0.009457696
vn -0.2790502 -0.1055547 -0.5436351
vn 0.3387409 -0.09903693 -0.5202538
vn 0.6244231 -0.09634197 0.01562087
vn 0.3169284 -0.09643111 0.5380987
vn 0.1669349 -0.1845261 0.373321
vn -0.2361484 -0.1846283 0.3333617
vn -0.4030834 -0.1855725 -0.0356883
vn -0.166935 -0.1864145 -0.3647792
vn 0.2361484 -0.1863122 -0.3248199
vn 0.4030835 -0.185368 0.04423011
vn 0.1669349 -0.1845261 0.373321
vn 0 -0.229409 0.005282752
vn 0 -0.229409 0.005282752
vn 0 -0.229409 0.005282752
vn 0 -0.229409 0.005282752
vn 0 -0.229409 0.005282752
vn 0 -0.229409 0.005282752
vn -0.2688305 0.1540405 0.433426
vn -0.2923865 0.207457 0.02913463
vn 0.1939605 0.1264337 0.54055
vn -0.4451694 0.1722747 -0.09165876
vn -0.2923865 0.207457 0.02913463
vn -0.2080902 0.1277281 -0.5324968
vn -0.2923865 0.207457 0.02913463
vn 0.1865118 0.1240632 -0.5480627
vn -0.2923865 0.207457 0.02913463
vn 0.3168673 0.2036532 -0.00282347
vn -0.2923865 0.207457 0.02913463
vn 0.1939605 0.1264337 0.54055
vn -0.2923865 0.207457 0.02913463
vt 0.4702967 0.08347519
vt 0.4494317 0.06472667
vt 0.4609224 0.09390768
vt 0.4400574 0.07515916
vt 0.4817874 0.1126562
vt 0.4911617 0.1022237
vt 0.5120267 0.1209722
vt 0.5026525 0.1314047
vt 0.5328918 0.1397207
vt 0.5235175 0.1501532
vt 0.5443825 0.1689017
vt 0.5537568 0.1584692
vt 0.5746217 0.1772177
vt 0.5652475 0.1876502
vt 0.4515482 0.1043402
vt 0.4306832 0.08559168
vt 0.4213089 0.0960242
vt 0.4421739 0.1147727
vt 0.4724132 0.1230887
vt 0.4630389 0.1335212
vt 0.4839039 0.1522697
vt 0.4932782 0.1418372
vt 0.504769 0.1710183
vt 0.5141432 0.1605857
vt 0.525634 0.1897667
vt 0.5350083 0.1793342
vt 0.5558732 0.1980827
vt 0.546499 0.2085152
vt 0.4234254 0.1356377
vt 0.4025604 0.1168892
vt 0.4442904 0.1543862
vt 0.4651554 0.1731348
vt 0.4860204 0.1918833
vt 0.5068855 0.2106318
vt 0.5277504 0.2293802
vt 0.3838119 0.1377542
vt 0.4046769 0.1565028
vt 0.4255419 0.1752513
vt 0.4464069 0.1939998
vt 0.4672719 0.2127483
vt 0.4881369 0.2314968
vt 0.5090019 0.2502453
vt 0.3754959 0.1679935
vt 0.3963609 0.186742
vt 0.4172259 0.2054905
vt 0.4380909 0.224239
vt 0.458956 0.2429875
vt 0.4798209 0.261736
vt 0.4796709 0.07304269
vt 0.487987 0.04280339
vt 0.4588059 0.05429417
vt 0.500536 0.09179118
vt 0.508852 0.06155191
vt 0.521401 0.1105397
vt 0.529717 0.08030042
vt 0.542266 0.1292882
vt 0.550582 0.09904891
vt 0.563131 0.1480367
vt 0.5714471 0.1177975
vt 0.583996 0.1667852
vt 0.592312 0.1365459
usemtl HoneyINside
f 3/3/3 2/2/2 1/1/1
f 3/3/3 4/4/4 2/2/2
f 5/5/5 3/3/3 1/1/1
f 5/5/5 1/1/1 6/6/6
f 7/7/7 5/5/5 6/6/6
f 7/7/7 8/8/8 5/5/5
f 9/9/9 8/8/8 7/7/7
f 9/9/9 10/10/10 8/8/8
f 11/11/11 10/10/10 9/9/9
f 11/11/11 9/9/9 12/12/12
f 13/13/13 11/11/11 12/12/12
f 13/13/13 14/14/14 11/11/11
f 15/15/15 4/4/4 3/3/3
f 5/5/5 15/15/15 3/3/3
f 15/15/15 16/16/16 4/4/4
f 15/15/15 17/17/17 16/16/16
f 15/15/15 18/18/18 17/17/17
f 19/19/19 18/18/18 15/15/15
f 5/5/5 19/19/19 15/15/15
f 19/19/19 20/20/20 18/18/18
f 21/21/21 20/20/20 19/19/19
f 21/21/21 19/19/19 22/22/22
f 10/10/10 22/22/22 8/8/8
f 23/23/23 21/21/21 22/22/22
f 23/23/23 22/22/22 24/24/24
f 10/10/10 24/24/24 22/22/22
f 25/25/25 23/23/23 24/24/24
f 25/25/25 24/24/24 26/26/26
f 27/27/27 25/25/25 26/26/26
f 27/27/27 28/28/28 25/25/25
f 29/29/29 17/17/17 18/18/18
f 29/29/29 30/30/30 17/17/17
f 31/31/31 18/18/18 20/20/20
f 31/31/31 29/29/29 18/18/18
f 21/21/21 31/31/31 20/20/20
f 21/21/21 32/32/32 31/31/31
f 23/23/23 32/32/32 21/21/21
f 23/23/23 33/33/33 32/32/32
f 25/25/25 33/33/33 23/23/23
f 25/25/25 34/34/34 33/33/33
f 35/35/35 25/25/25 28/28/28
f 35/35/35 34/34/34 25/25/25
f 29/29/29 36/36/36 30/30/30
f 29/29/29 37/37/37 36/36/36
f 31/31/31 37/37/37 29/29/29
f 31/31/31 38/38/38 37/37/37
f 32/32/32 38/38/38 31/31/31
f 32/32/32 39/39/39 38/38/38
f 33/33/33 39/39/39 32/32/32
f 33/33/33 40/40/40 39/39/39
f 34/34/34 40/40/40 33/33/33
f 34/34/34 41/41/41 40/40/40
f 35/35/35 41/41/41 34/34/34
f 35/35/35 42/42/42 41/41/41
f 37/37/37 43/43/43 36/36/36
f 38/38/38 44/44/44 37/37/37
f 39/39/39 45/45/45 38/38/38
f 40/40/40 46/46/46 39/39/39
f 41/41/41 47/47/47 40/40/40
f 42/42/42 48/48/48 41/41/41
f 51/51/51 50/50/50 49/49/49
f 49/49/49 2/2/2 51/51/51
f 49/49/49 1/1/1 2/2/2
f 6/6/6 1/1/1 49/49/49
f 6/6/6 49/49/49 52/52/52
f 49/49/49 53/53/53 52/52/52
f 54/54/54 6/6/6 52/52/52
f 52/52/52 55/55/55 54/54/54
f 54/54/54 7/7/7 6/6/6
f 56/56/56 7/7/7 54/54/54
f 54/54/54 57/57/57 56/56/56
f 56/56/56 9/9/9 7/7/7
f 12/12/12 9/9/9 56/56/56
f 12/12/12 56/56/56 58/58/58
f 56/56/56 59/59/59 58/58/58
f 60/60/60 12/12/12 58/58/58
f 58/58/58 61/61/61 60/60/60
f 60/60/60 13/13/13 12/12/12
f 22/22/22 5/5/5 8/8/8
f 22/22/22 19/19/19 5/5/5
f 26/26/26 10/10/10 11/11/11
f 26/26/26 24/24/24 10/10/10
f 27/27/27 26/26/26 11/11/11
f 27/27/27 11/11/11 14/14/14
