# Export of towers
# from Aaro4130 OBJ Exporter v2.0
mtllib HoneyTowerProjectile0.mtl
g HoneyProjectile
v -0.05720375 0.38674 0.1019927
v 0.06079675 0.38674 0.1019927
v -0.07368081 0.3779063 0.1766012
v 0.07727382 0.3146684 0.1766012
v -0.1491581 0.3314026 0.0001001695
v -0.116204 0.3859556 -0.0001957584
v -0.05720379 0.3851713 -0.1023842
v -0.07368086 0.3690423 -0.1546065
v 0.06079671 0.3851713 -0.1023842
v 0.07727378 0.3303992 -0.1306266
v 0.1527511 0.3314026 0.0001001464
v 0.119797 0.424911 -0.0001957715
v 0.06079675 0.38674 0.1019927
v 0.07727382 0.3146684 0.1766012
v -0.09174921 0.2607061 0.1753631
v 0.08906015 0.2607061 0.175363
v 0.1008465 0.1330248 0.1833437
v -0.1098176 0.1330248 0.1833438
v -0.1821539 0.2315136 0.0005044088
v -0.2151496 0.1316245 0.0009086481
v -0.1098177 0.1302241 -0.1815265
v -0.09174926 0.2303117 -0.1560765
v 0.1008464 0.1302241 -0.1815265
v 0.08906011 0.2303117 -0.1560765
v 0.2061785 0.1316245 0.0009086168
v 0.2151497 0.3064634 0.000504391
v 0.08906015 0.2607061 0.175363
v 0.1008465 0.1330248 0.1833437
v -0.08942371 0.02750826 0.1597106
v 0.09301674 0.02750823 0.1597105
v -0.180644 0.02629551 0.001717126
v -0.08942376 0.02508281 -0.1562764
v 0.09301669 0.02508281 -0.1562764
v 0.1842369 0.02629551 0.001717099
v 0.09301674 0.02750823 0.1597105
v 0.05446252 -0.05011046 0.0935265
v -0.05086952 -0.05011046 0.09352652
v -0.1035356 -0.05081061 0.002308964
v -0.05086955 -0.05151081 -0.08890861
v 0.05446249 -0.05151081 -0.08890861
v 0.1071285 -0.05081061 0.002308948
v 0.05446252 -0.05011046 0.0935265
v 0.001796477 -0.07903346 0.00252558
v 0.001796477 -0.07903346 0.00252558
v 0.001796477 -0.07903346 0.00252558
v 0.001796477 -0.07903346 0.00252558
v 0.001796477 -0.07903346 0.00252558
v 0.001796477 -0.07903346 0.00252558
v -0.0407267 0.441074 0.07315847
v 0.001796477 0.4687314 -0.0007083312
v 0.04431968 0.441074 0.07315845
v -0.08324988 0.4974059 -0.03943317
v 0.001796477 0.4687314 -0.0007083312
v -0.04072671 0.4399433 -0.07414185
v 0.001796477 0.4687314 -0.0007083312
v 0.04431965 0.4399433 -0.07414186
v 0.001796477 0.4687314 -0.0007083312
v 0.0719322 0.5790491 -0.0004916817
v 0.001796477 0.4687314 -0.0007083312
v 0.04431968 0.441074 0.07315845
v 0.001796477 0.4687314 -0.0007083312
vn -0.2295924 0.4991198 0.177483
vn 0.3100799 0.3622921 0.3254664
vn -0.2747063 0.2552998 0.4389668
vn 0.2751009 0.2097061 0.4622513
vn -0.5457064 0.1875998 -0.01854936
vn -0.5123979 0.2633916 0.03750314
vn -0.251838 0.4608888 -0.2397761
vn -0.2588117 0.1653155 -0.4888974
vn 0.2867692 0.2933347 -0.4062655
vn 0.2475363 0.1773904 -0.4905016
vn 0.385994 0.4224953 0.07641742
vn 0.5422701 0.198173 -0.001957733
vn 0.3100799 0.3622921 0.3254664
vn 0.2751009 0.2097061 0.4622513
vn -0.3255709 0.07228214 0.4712879
vn 0.3241661 0.05297126 0.4748092
vn 0.3021973 -0.02545927 0.491286
vn -0.2923666 -0.02717538 0.4971083
vn -0.5514253 0.1710638 -0.0006988913
vn -0.5773338 -0.004328704 -0.0003133984
vn -0.2816181 -0.003609363 -0.5039957
vn -0.2804976 0.1321187 -0.487031
vn 0.2954682 0.004720602 -0.4959936
vn 0.2873069 0.1177963 -0.4867362
vn 0.5757982 -0.04215884 0.003509324
vn 0.5663236 0.1116118 0.01239161
vn 0.3241661 0.05297126 0.4748092
vn 0.3021973 -0.02545927 0.491286
vn -0.2524318 -0.2589461 0.450065
vn 0.2658619 -0.2426796 0.4513951
vn -0.511183 -0.2682577 -0.007933802
vn -0.234087 -0.2656402 -0.4560395
vn 0.2841597 -0.2492376 -0.4364256
vn 0.5238101 -0.2424553 0.01310387
vn 0.2658619 -0.2426796 0.4513951
vn 0.1400368 -0.4643803 0.3131679
vn -0.1980979 -0.4646376 0.2796472
vn -0.3381348 -0.4670138 -0.0299379
vn -0.1400369 -0.4691328 -0.3060025
vn 0.198098 -0.4688756 -0.2724818
vn 0.3381348 -0.4664993 0.03710329
vn 0.1400368 -0.4643803 0.3131679
vn 0 -0.5773334 0.004431498
vn 0 -0.5773334 0.004431498
vn 0 -0.5773334 0.004431498
vn 0 -0.5773334 0.004431498
vn 0 -0.5773334 0.004431498
vn 0 -0.5773334 0.004431498
vn -0.2255139 0.3876602 0.3635883
vn -0.2452744 0.5220886 0.02444023
vn 0.1627078 0.3181845 0.4534515
vn -0.3734395 0.4335485 -0.07688978
vn -0.2452744 0.5220886 0.02444023
vn -0.1745607 0.3214419 -0.4466958
vn -0.2452744 0.5220886 0.02444023
vn 0.1564592 0.3122188 -0.4597536
vn -0.2452744 0.5220886 0.02444023
vn 0.2658106 0.5125159 -0.002368485
vn -0.2452744 0.5220886 0.02444023
vn 0.1627078 0.3181845 0.4534515
vn -0.2452744 0.5220886 0.02444023
vt 0.4702967 0.08347519
vt 0.4494317 0.06472667
vt 0.4609224 0.09390768
vt 0.4400574 0.07515916
vt 0.4817874 0.1126562
vt 0.4911617 0.1022237
vt 0.5120267 0.1209722
vt 0.5026525 0.1314047
vt 0.5328918 0.1397207
vt 0.5235175 0.1501532
vt 0.5443825 0.1689017
vt 0.5537568 0.1584692
vt 0.5746217 0.1772177
vt 0.5652475 0.1876502
vt 0.4515482 0.1043402
vt 0.4306832 0.08559168
vt 0.4213089 0.0960242
vt 0.4421739 0.1147727
vt 0.4724132 0.1230887
vt 0.4630389 0.1335212
vt 0.4839039 0.1522697
vt 0.4932782 0.1418372
vt 0.504769 0.1710183
vt 0.5141432 0.1605857
vt 0.525634 0.1897667
vt 0.5350083 0.1793342
vt 0.5558732 0.1980827
vt 0.546499 0.2085152
vt 0.4234254 0.1356377
vt 0.4025604 0.1168892
vt 0.4442904 0.1543862
vt 0.4651554 0.1731348
vt 0.4860204 0.1918833
vt 0.5068855 0.2106318
vt 0.5277504 0.2293802
vt 0.3838119 0.1377542
vt 0.4046769 0.1565028
vt 0.4255419 0.1752513
vt 0.4464069 0.1939998
vt 0.4672719 0.2127483
vt 0.4881369 0.2314968
vt 0.5090019 0.2502453
vt 0.3754959 0.1679935
vt 0.3963609 0.186742
vt 0.4172259 0.2054905
vt 0.4380909 0.224239
vt 0.458956 0.2429875
vt 0.4798209 0.261736
vt 0.4796709 0.07304269
vt 0.487987 0.04280339
vt 0.4588059 0.05429417
vt 0.500536 0.09179118
vt 0.508852 0.06155191
vt 0.521401 0.1105397
vt 0.529717 0.08030042
vt 0.542266 0.1292882
vt 0.550582 0.09904891
vt 0.563131 0.1480367
vt 0.5714471 0.1177975
vt 0.583996 0.1667852
vt 0.592312 0.1365459
usemtl HoneyINside
f 3/3/3 2/2/2 1/1/1
f 3/3/3 4/4/4 2/2/2
f 5/5/5 3/3/3 1/1/1
f 5/5/5 1/1/1 6/6/6
f 7/7/7 5/5/5 6/6/6
f 7/7/7 8/8/8 5/5/5
f 9/9/9 8/8/8 7/7/7
f 9/9/9 10/10/10 8/8/8
f 11/11/11 10/10/10 9/9/9
f 11/11/11 9/9/9 12/12/12
f 13/13/13 11/11/11 12/12/12
f 13/13/13 14/14/14 11/11/11
f 15/15/15 4/4/4 3/3/3
f 5/5/5 15/15/15 3/3/3
f 15/15/15 16/16/16 4/4/4
f 15/15/15 17/17/17 16/16/16
f 15/15/15 18/18/18 17/17/17
f 19/19/19 18/18/18 15/15/15
f 5/5/5 19/19/19 15/15/15
f 19/19/19 20/20/20 18/18/18
f 21/21/21 20/20/20 19/19/19
f 21/21/21 19/19/19 22/22/22
f 10/10/10 22/22/22 8/8/8
f 23/23/23 21/21/21 22/22/22
f 23/23/23 22/22/22 24/24/24
f 10/10/10 24/24/24 22/22/22
f 25/25/25 23/23/23 24/24/24
f 25/25/25 24/24/24 26/26/26
f 27/27/27 25/25/25 26/26/26
f 27/27/27 28/28/28 25/25/25
f 29/29/29 17/17/17 18/18/18
f 29/29/29 30/30/30 17/17/17
f 31/31/31 18/18/18 20/20/20
f 31/31/31 29/29/29 18/18/18
f 21/21/21 31/31/31 20/20/20
f 21/21/21 32/32/32 31/31/31
f 23/23/23 32/32/32 21/21/21
f 23/23/23 33/33/33 32/32/32
f 25/25/25 33/33/33 23/23/23
f 25/25/25 34/34/34 33/33/33
f 35/35/35 25/25/25 28/28/28
f 35/35/35 34/34/34 25/25/25
f 29/29/29 36/36/36 30/30/30
f 29/29/29 37/37/37 36/36/36
f 31/31/31 37/37/37 29/29/29
f 31/31/31 38/38/38 37/37/37
f 32/32/32 38/38/38 31/31/31
f 32/32/32 39/39/39 38/38/38
f 33/33/33 39/39/39 32/32/32
f 33/33/33 40/40/40 39/39/39
f 34/34/34 40/40/40 33/33/33
f 34/34/34 41/41/41 40/40/40
f 35/35/35 41/41/41 34/34/34
f 35/35/35 42/42/42 41/41/41
f 37/37/37 43/43/43 36/36/36
f 38/38/38 44/44/44 37/37/37
f 39/39/39 45/45/45 38/38/38
f 40/40/40 46/46/46 39/39/39
f 41/41/41 47/47/47 40/40/40
f 42/42/42 48/48/48 41/41/41
f 51/51/51 50/50/50 49/49/49
f 49/49/49 2/2/2 51/51/51
f 49/49/49 1/1/1 2/2/2
f 6/6/6 1/1/1 49/49/49
f 6/6/6 49/49/49 52/52/52
f 49/49/49 53/53/53 52/52/52
f 54/54/54 6/6/6 52/52/52
f 52/52/52 55/55/55 54/54/54
f 54/54/54 7/7/7 6/6/6
f 56/56/56 7/7/7 54/54/54
f 54/54/54 57/57/57 56/56/56
f 56/56/56 9/9/9 7/7/7
f 12/12/12 9/9/9 56/56/56
f 12/12/12 56/56/56 58/58/58
f 56/56/56 59/59/59 58/58/58
f 60/60/60 12/12/12 58/58/58
f 58/58/58 61/61/61 60/60/60
f 60/60/60 13/13/13 12/12/12
f 22/22/22 5/5/5 8/8/8
f 22/22/22 19/19/19 5/5/5
f 26/26/26 10/10/10 11/11/11
f 26/26/26 24/24/24 10/10/10
f 27/27/27 26/26/26 11/11/11
f 27/27/27 11/11/11 14/14/14
