# Export of towers
# from Aaro4130 OBJ Exporter v2.0
mtllib HoneyTowerProjectile5.mtl
g HoneyProjectile
v -0.3432225 0.38674 0.611956
v 0.3647805 0.38674 0.6119559
v -0.4420848 0.3779062 1.059608
v 0.463643 0.3146682 1.059607
v -0.8949488 0.3314026 0.0006009687
v -0.697224 0.3859556 -0.001174632
v -0.3432227 0.3851713 -0.6143055
v -0.4420851 0.3690424 -0.9276392
v 0.3647803 0.3851713 -0.6143056
v 0.4636427 0.3303993 -0.7837596
v 0.9165065 0.3314026 0.0006008302
v 0.7187818 0.424911 -0.001174734
v 0.3647805 0.38674 0.6119559
v 0.463643 0.3146682 1.059607
v -0.5504953 0.260706 1.052179
v 0.5343609 0.260706 1.052178
v 0.6050789 0.1330247 1.100062
v -0.6589056 0.1330247 1.100063
v -1.092923 0.2315136 0.003026464
v -1.290898 0.1316245 0.00545196
v -0.6589059 0.1302243 -1.089159
v -0.5504956 0.2303118 -0.9364592
v 0.6050786 0.1302243 -1.089159
v 0.5343606 0.2303118 -0.9364594
v 1.237071 0.1316245 0.005451771
v 1.290898 0.3064634 0.003026312
v 0.5343609 0.260706 1.052178
v 0.6050789 0.1330247 1.100062
v -0.5365422 0.02750817 0.9582637
v 0.5581004 0.02750814 0.9582635
v -1.083864 0.02629551 0.01030289
v -0.5365425 0.02508292 -0.9376581
v 0.5581002 0.02508292 -0.9376581
v 1.105421 0.02629551 0.01030273
v 0.5581004 0.02750814 0.9582635
v 0.3267751 -0.05011049 0.5611593
v -0.3052171 -0.05011049 0.5611594
v -0.6212133 -0.05081061 0.01385396
v -0.3052173 -0.05151075 -0.5334515
v 0.3267749 -0.05151075 -0.5334516
v 0.6427711 -0.05081061 0.01385387
v 0.3267751 -0.05011049 0.5611593
v 0.01077886 -0.07903346 0.01515368
v 0.01077886 -0.07903346 0.01515368
v 0.01077886 -0.07903346 0.01515368
v 0.01077886 -0.07903346 0.01515368
v 0.01077886 -0.07903346 0.01515368
v 0.01077886 -0.07903346 0.01515368
v -0.2443602 0.4410739 0.4389508
v 0.01077886 0.4687314 -0.004250118
v 0.2659181 0.4410739 0.4389507
v -0.4994993 0.497406 -0.2365992
v 0.01077886 0.4687314 -0.004250118
v -0.2443603 0.4399434 -0.4448513
v 0.01077886 0.4687314 -0.004250118
v 0.2659179 0.4399434 -0.4448513
v 0.01077886 0.4687314 -0.004250118
v 0.4315932 0.5790491 -0.002950286
v 0.01077886 0.4687314 -0.004250118
v 0.2659181 0.4410739 0.4389507
v 0.01077886 0.4687314 -0.004250118
vn -0.2792595 0.1011821 0.2158774
vn 0.3771586 0.07344425 0.3958736
vn -0.3341327 0.05175464 0.5339273
vn 0.3346128 0.04251182 0.5622489
vn -0.6637576 0.03803046 -0.02256212
vn -0.6232436 0.05339506 0.04561606
vn -0.3063174 0.09343196 -0.2916462
vn -0.3147997 0.03351302 -0.5946593
vn 0.3488052 0.05946521 -0.4941518
vn 0.3010852 0.03596086 -0.5966105
vn 0.469495 0.08564876 0.09294854
vn 0.6595779 0.04017387 -0.002381269
vn 0.3771586 0.07344425 0.3958736
vn 0.3346128 0.04251182 0.5622489
vn -0.3960008 0.01465307 0.5732403
vn 0.3942921 0.01073834 0.5775234
vn 0.3675708 -0.005161193 0.5975646
vn -0.3556134 -0.005509086 0.6046464
vn -0.6707136 0.03467826 -0.0008501013
vn -0.7022269 -0.00087752 -0.0003811945
vn -0.3425398 -0.0007316335 -0.6130237
vn -0.3411768 0.02678333 -0.5923891
vn 0.3593861 0.000957026 -0.6032906
vn 0.3494592 0.02387986 -0.5920306
vn 0.700359 -0.008546492 0.004268492
vn 0.6888349 0.02262608 0.01507225
vn 0.3942921 0.01073834 0.5775234
vn 0.3675708 -0.005161193 0.5975646
vn -0.3070397 -0.05249392 0.5474265
vn 0.323375 -0.04919634 0.5490442
vn -0.6217658 -0.05438153 -0.009650068
vn -0.2847264 -0.05385084 -0.5546932
vn 0.3456312 -0.05052569 -0.5308363
vn 0.6371245 -0.04915083 0.01593862
vn 0.323375 -0.04919634 0.5490442
vn 0.1703306 -0.09413978 0.3809147
vn -0.2409519 -0.09419192 0.3401426
vn -0.4112826 -0.09467361 -0.03641422
vn -0.1703306 -0.09510314 -0.3721991
vn 0.240952 -0.09505099 -0.331427
vn 0.4112826 -0.0945693 0.0451298
vn 0.1703306 -0.09413978 0.3809147
vn 0 -0.1170377 0.005390222
vn 0 -0.1170377 0.005390222
vn 0 -0.1170377 0.005390222
vn 0 -0.1170377 0.005390222
vn 0 -0.1170377 0.005390222
vn 0 -0.1170377 0.005390222
vn -0.2742988 0.07858691 0.4422424
vn -0.298334 0.1058384 0.02972725
vn 0.1979059 0.0645027 0.5515453
vn -0.4542246 0.08788948 -0.0935232
vn -0.298334 0.1058384 0.02972725
vn -0.212323 0.06516315 -0.5433283
vn -0.298334 0.1058384 0.02972725
vn 0.1903056 0.06329343 -0.5592109
vn -0.298334 0.1058384 0.02972725
vn 0.3233127 0.1038978 -0.002880915
vn -0.298334 0.1058384 0.02972725
vn 0.1979059 0.0645027 0.5515453
vn -0.298334 0.1058384 0.02972725
vt 0.4702967 0.08347519
vt 0.4494317 0.06472667
vt 0.4609224 0.09390768
vt 0.4400574 0.07515916
vt 0.4817874 0.1126562
vt 0.4911617 0.1022237
vt 0.5120267 0.1209722
vt 0.5026525 0.1314047
vt 0.5328918 0.1397207
vt 0.5235175 0.1501532
vt 0.5443825 0.1689017
vt 0.5537568 0.1584692
vt 0.5746217 0.1772177
vt 0.5652475 0.1876502
vt 0.4515482 0.1043402
vt 0.4306832 0.08559168
vt 0.4213089 0.0960242
vt 0.4421739 0.1147727
vt 0.4724132 0.1230887
vt 0.4630389 0.1335212
vt 0.4839039 0.1522697
vt 0.4932782 0.1418372
vt 0.504769 0.1710183
vt 0.5141432 0.1605857
vt 0.525634 0.1897667
vt 0.5350083 0.1793342
vt 0.5558732 0.1980827
vt 0.546499 0.2085152
vt 0.4234254 0.1356377
vt 0.4025604 0.1168892
vt 0.4442904 0.1543862
vt 0.4651554 0.1731348
vt 0.4860204 0.1918833
vt 0.5068855 0.2106318
vt 0.5277504 0.2293802
vt 0.3838119 0.1377542
vt 0.4046769 0.1565028
vt 0.4255419 0.1752513
vt 0.4464069 0.1939998
vt 0.4672719 0.2127483
vt 0.4881369 0.2314968
vt 0.5090019 0.2502453
vt 0.3754959 0.1679935
vt 0.3963609 0.186742
vt 0.4172259 0.2054905
vt 0.4380909 0.224239
vt 0.458956 0.2429875
vt 0.4798209 0.261736
vt 0.4796709 0.07304269
vt 0.487987 0.04280339
vt 0.4588059 0.05429417
vt 0.500536 0.09179118
vt 0.508852 0.06155191
vt 0.521401 0.1105397
vt 0.529717 0.08030042
vt 0.542266 0.1292882
vt 0.550582 0.09904891
vt 0.563131 0.1480367
vt 0.5714471 0.1177975
vt 0.583996 0.1667852
vt 0.592312 0.1365459
usemtl HoneyINside
f 3/3/3 2/2/2 1/1/1
f 3/3/3 4/4/4 2/2/2
f 5/5/5 3/3/3 1/1/1
f 5/5/5 1/1/1 6/6/6
f 7/7/7 5/5/5 6/6/6
f 7/7/7 8/8/8 5/5/5
f 9/9/9 8/8/8 7/7/7
f 9/9/9 10/10/10 8/8/8
f 11/11/11 10/10/10 9/9/9
f 11/11/11 9/9/9 12/12/12
f 13/13/13 11/11/11 12/12/12
f 13/13/13 14/14/14 11/11/11
f 15/15/15 4/4/4 3/3/3
f 5/5/5 15/15/15 3/3/3
f 15/15/15 16/16/16 4/4/4
f 15/15/15 17/17/17 16/16/16
f 15/15/15 18/18/18 17/17/17
f 19/19/19 18/18/18 15/15/15
f 5/5/5 19/19/19 15/15/15
f 19/19/19 20/20/20 18/18/18
f 21/21/21 20/20/20 19/19/19
f 21/21/21 19/19/19 22/22/22
f 10/10/10 22/22/22 8/8/8
f 23/23/23 21/21/21 22/22/22
f 23/23/23 22/22/22 24/24/24
f 10/10/10 24/24/24 22/22/22
f 25/25/25 23/23/23 24/24/24
f 25/25/25 24/24/24 26/26/26
f 27/27/27 25/25/25 26/26/26
f 27/27/27 28/28/28 25/25/25
f 29/29/29 17/17/17 18/18/18
f 29/29/29 30/30/30 17/17/17
f 31/31/31 18/18/18 20/20/20
f 31/31/31 29/29/29 18/18/18
f 21/21/21 31/31/31 20/20/20
f 21/21/21 32/32/32 31/31/31
f 23/23/23 32/32/32 21/21/21
f 23/23/23 33/33/33 32/32/32
f 25/25/25 33/33/33 23/23/23
f 25/25/25 34/34/34 33/33/33
f 35/35/35 25/25/25 28/28/28
f 35/35/35 34/34/34 25/25/25
f 29/29/29 36/36/36 30/30/30
f 29/29/29 37/37/37 36/36/36
f 31/31/31 37/37/37 29/29/29
f 31/31/31 38/38/38 37/37/37
f 32/32/32 38/38/38 31/31/31
f 32/32/32 39/39/39 38/38/38
f 33/33/33 39/39/39 32/32/32
f 33/33/33 40/40/40 39/39/39
f 34/34/34 40/40/40 33/33/33
f 34/34/34 41/41/41 40/40/40
f 35/35/35 41/41/41 34/34/34
f 35/35/35 42/42/42 41/41/41
f 37/37/37 43/43/43 36/36/36
f 38/38/38 44/44/44 37/37/37
f 39/39/39 45/45/45 38/38/38
f 40/40/40 46/46/46 39/39/39
f 41/41/41 47/47/47 40/40/40
f 42/42/42 48/48/48 41/41/41
f 51/51/51 50/50/50 49/49/49
f 49/49/49 2/2/2 51/51/51
f 49/49/49 1/1/1 2/2/2
f 6/6/6 1/1/1 49/49/49
f 6/6/6 49/49/49 52/52/52
f 49/49/49 53/53/53 52/52/52
f 54/54/54 6/6/6 52/52/52
f 52/52/52 55/55/55 54/54/54
f 54/54/54 7/7/7 6/6/6
f 56/56/56 7/7/7 54/54/54
f 54/54/54 57/57/57 56/56/56
f 56/56/56 9/9/9 7/7/7
f 12/12/12 9/9/9 56/56/56
f 12/12/12 56/56/56 58/58/58
f 56/56/56 59/59/59 58/58/58
f 60/60/60 12/12/12 58/58/58
f 58/58/58 61/61/61 60/60/60
f 60/60/60 13/13/13 12/12/12
f 22/22/22 5/5/5 8/8/8
f 22/22/22 19/19/19 5/5/5
f 26/26/26 10/10/10 11/11/11
f 26/26/26 24/24/24 10/10/10
f 27/27/27 26/26/26 11/11/11
f 27/27/27 11/11/11 14/14/14
