# Export of towers
# from Aaro4130 OBJ Exporter v2.0
mtllib IceTowerProjectile.mtl
g IceCube
v 0.1029358 2.285603 0.5324097
v -0.5382385 2.285603 0.06610109
v 0.04855343 2.378101 0.6072388
v -0.5926208 2.378101 0.1409302
v -0.1029358 2.285603 -0.5324097
v -0.6130676 2.378101 0.01171877
v -0.1777649 2.378101 -0.586853
v -0.1777649 3.135899 -0.586853
v -0.0485535 3.135899 -0.6072388
v -0.0485535 2.378101 -0.6072388
v -0.6130676 3.135899 0.01171877
v -0.5926208 2.378101 0.1409302
v -0.5926208 3.135899 0.1409302
v -0.5382385 3.228397 0.06610109
v -0.1029358 3.228397 -0.5324097
v 0.5382385 3.228397 -0.06610105
v 0.5926208 3.135899 -0.1409302
v -0.0485535 3.135899 -0.6072388
v 0.1029358 3.228397 0.5324097
v -0.5926208 3.135899 0.1409302
v 0.04855343 3.135899 0.6072388
v 0.1777648 3.135899 0.586792
v 0.6130676 3.135899 -0.01171873
v 0.6130676 2.378101 -0.01171873
v 0.5926208 2.378101 -0.1409302
v 0.5926208 3.135899 -0.1409302
v 0.1777648 2.378101 0.586792
v 0.1029358 2.285603 0.5324097
v 0.5382385 2.285603 -0.06610105
v 0.04855343 3.135899 0.6072388
v 0.04855343 2.378101 0.6072388
v -0.0485535 2.378101 -0.6072388
v -0.0485535 3.135899 -0.6072388
v -0.5926208 3.135899 0.1409302
v -0.5926208 2.378101 0.1409302
v 0.04855343 2.378101 0.6072388
v 0.5926208 2.378101 -0.1409302
v 0.04855343 3.135899 0.6072388
v 0.5926208 2.378101 -0.1409302
v -0.0485535 2.378101 -0.6072388
v 0.5382385 2.285603 -0.06610105
v -0.0485535 2.378101 -0.6072388
v 0.5926208 3.135899 -0.1409302
v -0.5926208 3.135899 0.1409302
v -0.0485535 3.135899 -0.6072388
v -0.5926208 2.378101 0.1409302
vn 0.0104811 -0.5711611 0.08365682
vn -0.08282007 -0.5711612 0.01578226
vn -0.2892965 -0.06020808 0.4959999
vn -0.3827014 -0.06021956 0.4280731
vn -0.01049157 -0.5711607 -0.08365799
vn -0.4978483 -0.06004699 -0.2861376
vn -0.4256347 -0.06007194 -0.3854346
vn -0.4256333 0.06006657 -0.385437
vn 0.289324 0.06020873 -0.4959837
vn 0.289324 -0.06020872 -0.4959837
vn -0.4978493 0.06004759 -0.2861358
vn -0.3827014 -0.06021956 0.4280731
vn -0.3827014 0.06021956 0.4280731
vn -0.0828231 0.5711607 0.0157821
vn -0.01048767 0.5711608 -0.08365813
vn 0.08282005 0.5711612 -0.01578232
vn 0.3827014 0.06021952 -0.4280731
vn 0.289324 0.06020873 -0.4959837
vn 0.01048112 0.5711611 0.08365679
vn -0.3827014 0.06021956 0.4280731
vn -0.2892965 0.06020806 0.4959999
vn 0.4256358 0.06005868 0.3854354
vn 0.497839 0.06004642 0.2861539
vn 0.497839 -0.06004657 0.286154
vn 0.3827014 -0.06021949 -0.4280731
vn 0.3827014 0.06021952 -0.4280731
vn 0.4256358 -0.06005855 0.3854354
vn 0.0104811 -0.5711611 0.08365682
vn 0.08282005 -0.5711612 -0.0157823
vn -0.2892965 0.06020806 0.4959999
vn -0.2892965 -0.06020808 0.4959999
vn 0.289324 -0.06020872 -0.4959837
vn 0.289324 0.06020873 -0.4959837
vn -0.3827014 0.06021956 0.4280731
vn -0.3827014 -0.06021956 0.4280731
vn -0.2892965 -0.06020808 0.4959999
vn 0.3827014 -0.06021949 -0.4280731
vn -0.2892965 0.06020806 0.4959999
vn 0.3827014 -0.06021949 -0.4280731
vn 0.289324 -0.06020872 -0.4959837
vn 0.08282005 -0.5711612 -0.0157823
vn 0.289324 -0.06020872 -0.4959837
vn 0.3827014 0.06021952 -0.4280731
vn -0.3827014 0.06021956 0.4280731
vn 0.289324 0.06020873 -0.4959837
vn -0.3827014 -0.06021956 0.4280731
vt 0.9187825 0.7788546
vt 0.7363998 0.7788251
vt 0.9187776 0.8089461
vt 0.7363949 0.8089167
vt 0.7364274 0.6085803
vt 0.7063081 0.7788202
vt 0.7063359 0.6085754
vt 0.5320115 0.6085472
vt 0.5320163 0.5784557
vt 0.7063407 0.5784839
vt 0.531984 0.778792
vt 0.7063032 0.8089118
vt 0.5319789 0.8088835
vt 0.5018922 0.778787
vt 0.5019198 0.6085423
vt 0.3195373 0.6085128
vt 0.3195421 0.5784212
vt 0.5019246 0.5784507
vt 0.3195096 0.7787575
vt 0.5018874 0.8088786
vt 0.3195047 0.8088491
vt 0.289418 0.7787526
vt 0.2894456 0.6085079
vt 0.1151212 0.6084797
vt 0.1151261 0.5783882
vt 0.2894505 0.5784162
vt 0.1150936 0.7787243
vt 0.08500203 0.7787195
vt 0.08502963 0.6084747
vt 0.2894132 0.8088441
vt 0.1150887 0.8088158
vt 0.1151556 0.3960054
vt 0.28948 0.3960335
vt 0.2893836 0.991227
vt 0.1150592 0.9911987
vt 0.1000437 0.804782
vt 0.1000796 0.5824172
vt 0.3044595 0.8048151
vt 0.918815 0.5785182
vt 0.7364324 0.5784888
vt 0.9188102 0.6086098
vt 0.7213858 0.5825178
vt 0.3044956 0.5824503
vt 0.5169338 0.8048496
vt 0.5169699 0.5824846
vt 0.7213498 0.8048826
usemtl IceTower1
f 3/3/3 2/2/2 1/1/1
f 3/3/3 4/4/4 2/2/2
f 5/5/5 1/1/1 2/2/2
f 6/6/6 5/5/5 2/2/2
f 6/6/6 7/7/7 5/5/5
f 8/8/8 7/7/7 6/6/6
f 9/9/9 7/7/7 8/8/8
f 9/9/9 10/10/10 7/7/7
f 8/8/8 6/6/6 11/11/11
f 11/11/11 6/6/6 12/12/12
f 11/11/11 12/12/12 13/13/13
f 14/14/14 8/8/8 11/11/11
f 14/14/14 15/15/15 8/8/8
f 16/16/16 15/15/15 14/14/14
f 17/17/17 15/15/15 16/16/16
f 17/17/17 18/18/18 15/15/15
f 16/16/16 14/14/14 19/19/19
f 19/19/19 14/14/14 20/20/20
f 19/19/19 20/20/20 21/21/21
f 22/22/22 16/16/16 19/19/19
f 22/22/22 23/23/23 16/16/16
f 24/24/24 23/23/23 22/22/22
f 25/25/25 23/23/23 24/24/24
f 25/25/25 26/26/26 23/23/23
f 24/24/24 22/22/22 27/27/27
f 28/28/28 24/24/24 27/27/27
f 28/28/28 29/29/29 24/24/24
f 27/27/27 22/22/22 30/30/30
f 27/27/27 30/30/30 31/31/31
f 32/32/32 26/26/26 25/25/25
f 32/32/32 33/33/33 26/26/26
f 31/31/31 30/30/30 34/34/34
f 31/31/31 34/34/34 35/35/35
f 27/27/27 36/36/36 28/28/28
f 24/24/24 29/29/29 37/37/37
f 22/22/22 19/19/19 38/38/38
f 41/41/41 40/40/40 39/39/39
f 41/41/41 5/5/5 40/40/40
f 5/5/5 41/41/41 1/1/1
f 7/7/7 42/42/42 5/5/5
f 23/23/23 43/43/43 16/16/16
f 14/14/14 11/11/11 44/44/44
f 15/15/15 45/45/45 8/8/8
f 6/6/6 2/2/2 46/46/46
