# Export of towers
# from Aaro4130 OBJ Exporter v2.0
mtllib MagnifyingGlassHitBox1.mtl
g MGarea (1)
v -0.4330127 -0.0205355 6.67572E-08
v -0.6830128 -0.0205355 -0.1249999
v -0.6495192 -0.0205355 -0.3749999
v -0.4330127 -0.0205355 -0.2499999
v -0.9659259 -0.0205355 -0.2588189
v -0.8660256 -0.0205355 -0.4999999
v -0.7165063 -0.0205355 0.1250001
v -1 -0.0205355 1.32145E-07
v -0.4330127 -0.0205355 0.2500001
v -0.9659258 -0.0205355 0.2588191
v -0.6997595 -0.0205355 0.4040064
v -0.7071067 -0.0205355 0.7071068
v -0.8660253 -0.0205355 0.5000001
v -0.4665063 -0.0205355 0.5580128
v -0.4999999 -0.0205355 0.8660254
v -0.2588189 -0.0205355 0.9659258
v -0.2332531 -0.0205355 0.6540064
v 7.629394E-08 -0.0205355 0.75
v 7.629394E-08 -0.0205355 1
v -0.2165063 -0.0205355 0.375
v 0 -0.0205355 0.5
v 0 -0.0205355 0.25
v -0.2165063 -0.0205355 0.125
v -0.2165063 -0.0205355 -0.125
v 0 -0.02053549 -5.897194E-17
v 0.2165064 -0.0205355 0.375
v 0.2332532 -0.0205355 0.6540064
v 0.2588192 -0.0205355 0.9659258
v 0.4665065 -0.0205355 0.5580126
v 0.5000001 -0.0205355 0.8660254
v 0.4330128 -0.0205355 0.2499999
v 0.7071068 -0.0205355 0.7071068
v 0.6997597 -0.0205355 0.4040063
v 0.9659259 -0.0205355 0.2588189
v 0.8660255 -0.0205355 0.4999999
v 0.7165065 -0.0205355 0.1249999
v 1 -0.0205355 -1.541692E-07
v 0.9659259 -0.0205355 -0.2588191
v 0.6830127 -0.0205355 -0.1250001
v 0.6495192 -0.0205355 -0.3750001
v 0.8660254 -0.0205355 -0.5000001
v 0.4330128 -0.0205355 -7.629394E-08
v 0.4330128 -0.0205355 -0.2500001
v 0.2165063 -0.0205355 -0.125
v 0.2165063 -0.0205355 0.125
v 0.2165063 -0.0205355 -0.375
v 0.4497595 -0.0205355 -0.5290064
v 0.7071066 -0.0205355 -0.7071068
v 0.2499999 -0.0205355 -0.6830128
v 0.4999999 -0.0205355 -0.8660255
v 0 -0.0205355 -0.5
v 0.258819 -0.0205355 -0.9659259
v -7.629394E-08 -0.0205355 -0.8080127
v -0.2588192 -0.0205355 -0.9659258
v -7.629394E-08 -0.0205355 -1
v -0.2500001 -0.0205355 -0.6830127
v -0.5000001 -0.0205355 -0.8660254
v -0.7071069 -0.0205355 -0.7071066
v -0.4497596 -0.0205355 -0.5290062
v -0.2165064 -0.0205355 -0.375
v 0 -0.0205355 -0.25
v -0.4330127 0 6.67572E-08
v -0.4330127 0 -0.2499999
v -0.6495192 0 -0.3749999
v -0.6830128 0 -0.1249999
v -0.9659259 0 -0.2588189
v -0.8660256 0 -0.4999999
v -0.7165063 0 0.1250001
v -1 0 1.32145E-07
v -0.4330127 0 0.2500001
v -0.9659258 0 0.2588191
v -0.6997595 0 0.4040064
v -0.7071067 0 0.7071068
v -0.8660253 0 0.5000001
v -0.4665063 0 0.5580128
v -0.4999999 0 0.8660254
v -0.2588189 0 0.9659258
v -0.2332531 0 0.6540064
v 7.629394E-08 0 0.75
v 7.629394E-08 0 1
v -0.2165063 0 0.375
v 0 0 0.5
v 0 0 0.25
v -0.2165063 0 0.125
v -0.2165063 0 -0.125
v 0 0 0
v 0.2165064 0 0.375
v 0.2332532 0 0.6540064
v 0.2588192 0 0.9659258
v 0.4665065 0 0.5580126
v 0.5000001 0 0.8660254
v 0.4330128 0 0.2499999
v 0.7071068 0 0.7071068
v 0.6997597 0 0.4040063
v 0.9659259 0 0.2588189
v 0.8660255 0 0.4999999
v 0.7165065 0 0.1249999
v 1 0 -1.541692E-07
v 0.9659259 0 -0.2588191
v 0.6830127 0 -0.1250001
v 0.6495192 0 -0.3750001
v 0.8660254 0 -0.5000001
v 0.4330128 0 -7.629394E-08
v 0.4330128 0 -0.2500001
v 0.2165063 0 -0.125
v 0.2165063 0 0.125
v 0.2165063 0 -0.375
v 0.4497595 0 -0.5290064
v 0.7071066 0 -0.7071068
v 0.2499999 0 -0.6830128
v 0.4999999 0 -0.8660255
v 0 0 -0.5
v 0.258819 0 -0.9659259
v -7.629394E-08 0 -0.8080127
v -0.2588192 0 -0.9659258
v -7.629394E-08 0 -1
v -0.2500001 0 -0.6830127
v -0.5000001 0 -0.8660254
v -0.7071069 0 -0.7071066
v -0.4497596 0 -0.5290062
v -0.2165064 0 -0.375
v 0 0 -0.25
v -0.8660256 0 -0.4999999
v -0.8660256 -0.0205355 -0.4999999
v -0.9659259 -0.0205355 -0.2588189
v -0.9659259 0 -0.2588189
v -1 -0.0205355 1.32145E-07
v -1 0 1.32145E-07
v -0.9659258 -0.0205355 0.2588191
v -0.9659258 0 0.2588191
v -0.8660253 -0.0205355 0.5000001
v -0.8660253 0 0.5000001
v -0.7071067 -0.0205355 0.7071068
v -0.7071067 0 0.7071068
v -0.4999999 -0.0205355 0.8660254
v -0.4999999 0 0.8660254
v -0.2588189 -0.0205355 0.9659258
v -0.2588189 0 0.9659258
v 7.629394E-08 -0.0205355 1
v 7.629394E-08 0 1
v 0.2588192 -0.0205355 0.9659258
v 0.2588192 0 0.9659258
v 0.5000001 -0.0205355 0.8660254
v 0.5000001 0 0.8660254
v 0.7071068 -0.0205355 0.7071068
v 0.7071068 0 0.7071068
v 0.8660255 -0.0205355 0.4999999
v 0.8660255 0 0.4999999
v 0.9659259 -0.0205355 0.2588189
v 0.9659259 0 0.2588189
v 1 -0.0205355 -1.541692E-07
v 1 0 -1.541692E-07
v 0.9659259 -0.0205355 -0.2588191
v 0.9659259 0 -0.2588191
v 0.8660254 -0.0205355 -0.5000001
v 0.8660254 0 -0.5000001
v 0.7071066 -0.0205355 -0.7071068
v 0.7071066 0 -0.7071068
v 0.4999999 -0.0205355 -0.8660255
v 0.4999999 0 -0.8660255
v 0.258819 -0.0205355 -0.9659259
v 0.258819 0 -0.9659259
v -7.629394E-08 -0.0205355 -1
v -7.629394E-08 0 -1
v -0.2588192 -0.0205355 -0.9659258
v -0.2588192 0 -0.9659258
v -0.5000001 -0.0205355 -0.8660254
v -0.5000001 0 -0.8660254
v -0.7071069 -0.0205355 -0.7071066
v -0.7071069 0 -0.7071066
vn 0 0.5773503 0
vn 0 0.5773503 0
vn 0 0.5773503 0
vn 0 0.5773503 0
vn 0 0.5773503 0
vn 0 0.5773503 0
vn 0 0.5773503 0
vn 0 0.5773503 0
vn 0 0.5773503 0
vn 0 0.5773503 0
vn 0 0.5773503 0
vn 0 0.5773503 0
vn 0 0.5773503 0
vn 0 0.5773503 0
vn 0 0.5773503 0
vn 0 0.5773503 0
vn 0 0.5773503 0
vn 0 0.5773503 0
vn 0 0.5773503 0
vn 0 0.5773503 0
vn 0 0.5773503 0
vn 0 0.5773503 0
vn 0 0.5773503 0
vn 0 0.5773503 0
vn 0 0.5773503 0
vn 0 0.5773503 0
vn 0 0.5773503 0
vn 0 0.5773503 0
vn 0 0.5773503 0
vn 0 0.5773503 0
vn 0 0.5773503 0
vn 0 0.5773503 0
vn 0 0.5773503 0
vn 0 0.5773503 0
vn 0 0.5773503 0
vn 0 0.5773503 0
vn 0 0.5773503 0
vn 0 0.5773503 0
vn 0 0.5773503 0
vn 0 0.5773503 0
vn 0 0.5773503 0
vn 0 0.5773503 0
vn 0 0.5773503 0
vn 0 0.5773503 0
vn 0 0.5773503 0
vn 0 0.5773503 0
vn 0 0.5773503 0
vn 0 0.5773503 0
vn 0 0.5773503 0
vn 0 0.5773503 0
vn 0 0.5773503 0
vn 0 0.5773503 0
vn 0 0.5773503 0
vn 0 0.5773503 0
vn 0 0.5773503 0
vn 0 0.5773503 0
vn 0 0.5773503 0
vn 0 0.5773503 0
vn 0 0.5773503 0
vn 0 0.5773503 0
vn 0 0.5773503 0
vn 0 -0.5773503 0
vn 0 -0.5773503 0
vn 0 -0.5773503 0
vn 0 -0.5773503 0
vn 0 -0.5773503 0
vn 0 -0.5773503 0
vn 0 -0.5773503 0
vn 0 -0.5773503 0
vn 0 -0.5773503 0
vn 0 -0.5773503 0
vn 0 -0.5773503 0
vn 0 -0.5773503 0
vn 0 -0.5773503 0
vn 0 -0.5773503 0
vn 0 -0.5773503 0
vn 0 -0.5773503 0
vn 0 -0.5773503 0
vn 0 -0.5773503 0
vn 0 -0.5773503 0
vn 0 -0.5773503 0
vn 0 -0.5773503 0
vn 0 -0.5773503 0
vn 0 -0.5773503 0
vn 0 -0.5773503 0
vn 0 -0.5773503 0
vn 0 -0.5773503 0
vn 0 -0.5773503 0
vn 0 -0.5773503 0
vn 0 -0.5773503 0
vn 0 -0.5773503 0
vn 0 -0.5773503 0
vn 0 -0.5773503 0
vn 0 -0.5773503 0
vn 0 -0.5773503 0
vn 0 -0.5773503 0
vn 0 -0.5773503 0
vn 0 -0.5773503 0
vn 0 -0.5773503 0
vn 0 -0.5773503 0
vn 0 -0.5773503 0
vn 0 -0.5773503 0
vn 0 -0.5773503 0
vn 0 -0.5773503 0
vn 0 -0.5773503 0
vn 0 -0.5773503 0
vn 0 -0.5773503 0
vn 0 -0.5773503 0
vn 0 -0.5773503 0
vn 0 -0.5773503 0
vn 0 -0.5773503 0
vn 0 -0.5773503 0
vn 0 -0.5773503 0
vn 0 -0.5773503 0
vn 0 -0.5773503 0
vn 0 -0.5773503 0
vn 0 -0.5773503 0
vn 0 -0.5773503 0
vn 0 -0.5773503 0
vn 0 -0.5773503 0
vn 0 -0.5773503 0
vn 0 -0.5773503 0
vn 0.5000001 0 0.288675
vn 0.5000001 0 0.288675
vn 0.5576776 0 0.149429
vn 0.5576776 0 0.149429
vn 0.5773503 0 -1.681738E-07
vn 0.5773503 0 -1.681738E-07
vn 0.5576774 0 -0.1494293
vn 0.5576774 0 -0.1494293
vn 0.5 0 -0.2886751
vn 0.5 0 -0.2886751
vn 0.4082482 0 -0.4082483
vn 0.4082482 0 -0.4082483
vn 0.288675 0 -0.5000001
vn 0.288675 0 -0.5000001
vn 0.1494292 0 -0.5576775
vn 0.1494292 0 -0.5576775
vn 0 0 -0.5773503
vn 0 0 -0.5773503
vn -0.1494292 0 -0.5576775
vn -0.1494292 0 -0.5576775
vn -0.2886752 0 -0.4999999
vn -0.2886752 0 -0.4999999
vn -0.4082483 0 -0.4082482
vn -0.4082483 0 -0.4082482
vn -0.5 0 -0.2886751
vn -0.5 0 -0.2886751
vn -0.5576775 0 -0.1494292
vn -0.5576775 0 -0.1494292
vn -0.5773503 0 0
vn -0.5773503 0 0
vn -0.5576774 0 0.1494294
vn -0.5576774 0 0.1494294
vn -0.4999999 0 0.2886753
vn -0.4999999 0 0.2886753
vn -0.4082482 0 0.4082483
vn -0.4082482 0 0.4082483
vn -0.2886751 0 0.5
vn -0.2886751 0 0.5
vn -0.1494291 0 0.5576775
vn -0.1494291 0 0.5576775
vn 1.681738E-07 0 0.5773503
vn 1.681738E-07 0 0.5773503
vn 0.1494292 0 0.5576775
vn 0.1494292 0 0.5576775
vn 0.2886752 0 0.4999999
vn 0.2886752 0 0.4999999
vn 0.4082483 0 0.4082482
vn 0.4082483 0 0.4082482
vt 0.2834936 0.5
vt 0.1584936 0.5624999
vt 0.1752404 0.6874999
vt 0.2834936 0.6249999
vt 0.01703705 0.6294094
vt 0.06698719 0.7499999
vt 0.1417468 0.4375
vt 0 0.4999999
vt 0.2834936 0.375
vt 0.01703713 0.3705904
vt 0.1501202 0.2979968
vt 0.1464466 0.1464466
vt 0.06698734 0.2499999
vt 0.2667468 0.2209936
vt 0.2500001 0.06698727
vt 0.3705905 0.01703709
vt 0.3833734 0.1729968
vt 0.5000001 0.125
vt 0.5000001 0
vt 0.3917468 0.3125
vt 0.5 0.25
vt 0.5 0.375
vt 0.3917468 0.4375
vt 0.3917468 0.5625
vt 0.5 0.5
vt 0.6082532 0.3125
vt 0.6166266 0.1729968
vt 0.6294096 0.01703709
vt 0.7332532 0.2209937
vt 0.7500001 0.06698734
vt 0.7165064 0.375
vt 0.8535535 0.1464466
vt 0.8498797 0.2979969
vt 0.982963 0.3705905
vt 0.9330127 0.2500001
vt 0.8582532 0.4375001
vt 1 0.5000001
vt 0.9829628 0.6294096
vt 0.8415064 0.5625001
vt 0.8247595 0.6875
vt 0.9330127 0.7500001
vt 0.7165064 0.5000001
vt 0.7165064 0.6250001
vt 0.6082532 0.5625
vt 0.6082532 0.4375
vt 0.6082532 0.6875
vt 0.7248797 0.7645032
vt 0.8535533 0.8535535
vt 0.6249999 0.8415064
vt 0.7499999 0.9330128
vt 0.5 0.75
vt 0.6294094 0.982963
vt 0.4999999 0.9040064
vt 0.3705904 0.9829628
vt 0.4999999 1
vt 0.3749999 0.8415064
vt 0.2499999 0.9330127
vt 0.1464465 0.8535533
vt 0.2751202 0.7645032
vt 0.3917468 0.6875
vt 0.5 0.625
vt 0.2834936 0.5
vt 0.2834936 0.6249999
vt 0.1752404 0.6874999
vt 0.1584936 0.5624999
vt 0.01703705 0.6294094
vt 0.06698719 0.7499999
vt 0.1417468 0.4375
vt 0 0.4999999
vt 0.2834936 0.375
vt 0.01703713 0.3705904
vt 0.1501202 0.2979968
vt 0.1464466 0.1464466
vt 0.06698734 0.2499999
vt 0.2667468 0.2209936
vt 0.2500001 0.06698727
vt 0.3705905 0.01703709
vt 0.3833734 0.1729968
vt 0.5000001 0.125
vt 0.5000001 0
vt 0.3917468 0.3125
vt 0.5 0.25
vt 0.5 0.375
vt 0.3917468 0.4375
vt 0.3917468 0.5625
vt 0.5 0.5
vt 0.6082532 0.3125
vt 0.6166266 0.1729968
vt 0.6294096 0.01703709
vt 0.7332532 0.2209937
vt 0.7500001 0.06698734
vt 0.7165064 0.375
vt 0.8535535 0.1464466
vt 0.8498797 0.2979969
vt 0.982963 0.3705905
vt 0.9330127 0.2500001
vt 0.8582532 0.4375001
vt 1 0.5000001
vt 0.9829628 0.6294096
vt 0.8415064 0.5625001
vt 0.8247595 0.6875
vt 0.9330127 0.7500001
vt 0.7165064 0.5000001
vt 0.7165064 0.6250001
vt 0.6082532 0.5625
vt 0.6082532 0.4375
vt 0.6082532 0.6875
vt 0.7248797 0.7645032
vt 0.8535533 0.8535535
vt 0.6249999 0.8415064
vt 0.7499999 0.9330128
vt 0.5 0.75
vt 0.6294094 0.982963
vt 0.4999999 0.9040064
vt 0.3705904 0.9829628
vt 0.4999999 1
vt 0.3749999 0.8415064
vt 0.2499999 0.9330127
vt 0.1464465 0.8535533
vt 0.2751202 0.7645032
vt 0.3917468 0.6875
vt 0.5 0.625
vt 0.06698719 0.7499999
vt 0.06698719 0.7499999
vt 0.01703705 0.6294094
vt 0.01703705 0.6294094
vt 0 0.4999999
vt 0 0.4999999
vt 0.01703713 0.3705904
vt 0.01703713 0.3705904
vt 0.06698734 0.2499999
vt 0.06698734 0.2499999
vt 0.1464466 0.1464466
vt 0.1464466 0.1464466
vt 0.2500001 0.06698727
vt 0.2500001 0.06698727
vt 0.3705905 0.01703709
vt 0.3705905 0.01703709
vt 0.5000001 0
vt 0.5000001 0
vt 0.6294096 0.01703709
vt 0.6294096 0.01703709
vt 0.7500001 0.06698734
vt 0.7500001 0.06698734
vt 0.8535535 0.1464466
vt 0.8535535 0.1464466
vt 0.9330127 0.2500001
vt 0.9330127 0.2500001
vt 0.982963 0.3705905
vt 0.982963 0.3705905
vt 1 0.5000001
vt 1 0.5000001
vt 0.9829628 0.6294096
vt 0.9829628 0.6294096
vt 0.9330127 0.7500001
vt 0.9330127 0.7500001
vt 0.8535533 0.8535535
vt 0.8535533 0.8535535
vt 0.7499999 0.9330128
vt 0.7499999 0.9330128
vt 0.6294094 0.982963
vt 0.6294094 0.982963
vt 0.4999999 1
vt 0.4999999 1
vt 0.3705904 0.9829628
vt 0.3705904 0.9829628
vt 0.2499999 0.9330127
vt 0.2499999 0.9330127
vt 0.1464465 0.8535533
vt 0.1464465 0.8535533
usemtl HotArea
f 3/3/3 2/2/2 1/1/1
f 4/4/4 3/3/3 1/1/1
f 5/5/5 2/2/2 3/3/3
f 6/6/6 5/5/5 3/3/3
f 7/7/7 2/2/2 5/5/5
f 1/1/1 2/2/2 7/7/7
f 8/8/8 7/7/7 5/5/5
f 9/9/9 1/1/1 7/7/7
f 8/8/8 10/10/10 7/7/7
f 10/10/10 11/11/11 7/7/7
f 12/12/12 11/11/11 10/10/10
f 13/13/13 12/12/12 10/10/10
f 14/14/14 11/11/11 12/12/12
f 7/7/7 11/11/11 14/14/14
f 9/9/9 7/7/7 14/14/14
f 15/15/15 14/14/14 12/12/12
f 15/15/15 16/16/16 14/14/14
f 16/16/16 17/17/17 14/14/14
f 18/18/18 17/17/17 16/16/16
f 19/19/19 18/18/18 16/16/16
f 20/20/20 17/17/17 18/18/18
f 14/14/14 17/17/17 20/20/20
f 9/9/9 14/14/14 20/20/20
f 21/21/21 20/20/20 18/18/18
f 21/21/21 22/22/22 20/20/20
f 22/22/22 23/23/23 20/20/20
f 24/24/24 23/23/23 22/22/22
f 25/25/25 24/24/24 22/22/22
f 1/1/1 23/23/23 24/24/24
f 20/20/20 23/23/23 1/1/1
f 4/4/4 1/1/1 24/24/24
f 9/9/9 20/20/20 1/1/1
f 21/21/21 18/18/18 26/26/26
f 21/21/21 26/26/26 22/22/22
f 18/18/18 27/27/27 26/26/26
f 28/28/28 27/27/27 18/18/18
f 19/19/19 28/28/28 18/18/18
f 29/29/29 27/27/27 28/28/28
f 26/26/26 27/27/27 29/29/29
f 30/30/30 29/29/29 28/28/28
f 31/31/31 26/26/26 29/29/29
f 30/30/30 32/32/32 29/29/29
f 32/32/32 33/33/33 29/29/29
f 34/34/34 33/33/33 32/32/32
f 35/35/35 34/34/34 32/32/32
f 36/36/36 33/33/33 34/34/34
f 29/29/29 33/33/33 36/36/36
f 31/31/31 29/29/29 36/36/36
f 37/37/37 36/36/36 34/34/34
f 37/37/37 38/38/38 36/36/36
f 38/38/38 39/39/39 36/36/36
f 40/40/40 39/39/39 38/38/38
f 41/41/41 40/40/40 38/38/38
f 42/42/42 39/39/39 40/40/40
f 36/36/36 39/39/39 42/42/42
f 31/31/31 36/36/36 42/42/42
f 43/43/43 42/42/42 40/40/40
f 43/43/43 44/44/44 42/42/42
f 44/44/44 45/45/45 42/42/42
f 22/22/22 45/45/45 44/44/44
f 25/25/25 22/22/22 44/44/44
f 26/26/26 45/45/45 22/22/22
f 42/42/42 45/45/45 26/26/26
f 31/31/31 42/42/42 26/26/26
f 43/43/43 40/40/40 46/46/46
f 43/43/43 46/46/46 44/44/44
f 40/40/40 47/47/47 46/46/46
f 48/48/48 47/47/47 40/40/40
f 41/41/41 48/48/48 40/40/40
f 49/49/49 47/47/47 48/48/48
f 46/46/46 47/47/47 49/49/49
f 50/50/50 49/49/49 48/48/48
f 51/51/51 46/46/46 49/49/49
f 50/50/50 52/52/52 49/49/49
f 52/52/52 53/53/53 49/49/49
f 54/54/54 53/53/53 52/52/52
f 55/55/55 54/54/54 52/52/52
f 56/56/56 53/53/53 54/54/54
f 49/49/49 53/53/53 56/56/56
f 51/51/51 49/49/49 56/56/56
f 57/57/57 56/56/56 54/54/54
f 57/57/57 58/58/58 56/56/56
f 58/58/58 59/59/59 56/56/56
f 3/3/3 59/59/59 58/58/58
f 6/6/6 3/3/3 58/58/58
f 60/60/60 59/59/59 3/3/3
f 56/56/56 59/59/59 60/60/60
f 51/51/51 56/56/56 60/60/60
f 4/4/4 60/60/60 3/3/3
f 4/4/4 24/24/24 60/60/60
f 24/24/24 61/61/61 60/60/60
f 44/44/44 61/61/61 24/24/24
f 25/25/25 44/44/44 24/24/24
f 46/46/46 61/61/61 44/44/44
f 60/60/60 61/61/61 46/46/46
f 51/51/51 60/60/60 46/46/46
f 64/64/64 63/63/63 62/62/62
f 65/65/65 64/64/64 62/62/62
f 65/65/65 66/66/66 64/64/64
f 66/66/66 67/67/67 64/64/64
f 65/65/65 68/68/68 66/66/66
f 65/65/65 62/62/62 68/68/68
f 68/68/68 69/69/69 66/66/66
f 62/62/62 70/70/70 68/68/68
f 71/71/71 69/69/69 68/68/68
f 72/72/72 71/71/71 68/68/68
f 72/72/72 73/73/73 71/71/71
f 73/73/73 74/74/74 71/71/71
f 72/72/72 75/75/75 73/73/73
f 68/68/68 70/70/70 75/75/75
f 72/72/72 68/68/68 75/75/75
f 75/75/75 76/76/76 73/73/73
f 77/77/77 76/76/76 75/75/75
f 78/78/78 77/77/77 75/75/75
f 78/78/78 79/79/79 77/77/77
f 79/79/79 80/80/80 77/77/77
f 78/78/78 81/81/81 79/79/79
f 75/75/75 70/70/70 81/81/81
f 78/78/78 75/75/75 81/81/81
f 81/81/81 82/82/82 79/79/79
f 83/83/83 82/82/82 81/81/81
f 84/84/84 83/83/83 81/81/81
f 84/84/84 85/85/85 83/83/83
f 85/85/85 86/86/86 83/83/83
f 84/84/84 62/62/62 85/85/85
f 84/84/84 81/81/81 62/62/62
f 62/62/62 63/63/63 85/85/85
f 81/81/81 70/70/70 62/62/62
f 79/79/79 82/82/82 87/87/87
f 87/87/87 82/82/82 83/83/83
f 88/88/88 79/79/79 87/87/87
f 89/89/89 80/80/80 79/79/79
f 88/88/88 89/89/89 79/79/79
f 88/88/88 90/90/90 89/89/89
f 88/88/88 87/87/87 90/90/90
f 90/90/90 91/91/91 89/89/89
f 87/87/87 92/92/92 90/90/90
f 93/93/93 91/91/91 90/90/90
f 94/94/94 93/93/93 90/90/90
f 94/94/94 95/95/95 93/93/93
f 95/95/95 96/96/96 93/93/93
f 94/94/94 97/97/97 95/95/95
f 90/90/90 92/92/92 97/97/97
f 94/94/94 90/90/90 97/97/97
f 97/97/97 98/98/98 95/95/95
f 99/99/99 98/98/98 97/97/97
f 100/100/100 99/99/99 97/97/97
f 100/100/100 101/101/101 99/99/99
f 101/101/101 102/102/102 99/99/99
f 100/100/100 103/103/103 101/101/101
f 97/97/97 92/92/92 103/103/103
f 100/100/100 97/97/97 103/103/103
f 103/103/103 104/104/104 101/101/101
f 105/105/105 104/104/104 103/103/103
f 106/106/106 105/105/105 103/103/103
f 106/106/106 83/83/83 105/105/105
f 83/83/83 86/86/86 105/105/105
f 106/106/106 87/87/87 83/83/83
f 106/106/106 103/103/103 87/87/87
f 103/103/103 92/92/92 87/87/87
f 101/101/101 104/104/104 107/107/107
f 107/107/107 104/104/104 105/105/105
f 108/108/108 101/101/101 107/107/107
f 109/109/109 102/102/102 101/101/101
f 108/108/108 109/109/109 101/101/101
f 108/108/108 110/110/110 109/109/109
f 108/108/108 107/107/107 110/110/110
f 110/110/110 111/111/111 109/109/109
f 107/107/107 112/112/112 110/110/110
f 113/113/113 111/111/111 110/110/110
f 114/114/114 113/113/113 110/110/110
f 114/114/114 115/115/115 113/113/113
f 115/115/115 116/116/116 113/113/113
f 114/114/114 117/117/117 115/115/115
f 110/110/110 112/112/112 117/117/117
f 114/114/114 110/110/110 117/117/117
f 117/117/117 118/118/118 115/115/115
f 119/119/119 118/118/118 117/117/117
f 120/120/120 119/119/119 117/117/117
f 120/120/120 64/64/64 119/119/119
f 64/64/64 67/67/67 119/119/119
f 120/120/120 121/121/121 64/64/64
f 117/117/117 112/112/112 121/121/121
f 120/120/120 117/117/117 121/121/121
f 121/121/121 63/63/63 64/64/64
f 85/85/85 63/63/63 121/121/121
f 122/122/122 85/85/85 121/121/121
f 122/122/122 105/105/105 85/85/85
f 105/105/105 86/86/86 85/85/85
f 122/122/122 107/107/107 105/105/105
f 122/122/122 121/121/121 107/107/107
f 121/121/121 112/112/112 107/107/107
f 125/125/125 124/124/124 123/123/123
f 126/126/126 125/125/125 123/123/123
f 127/127/127 125/125/125 126/126/126
f 128/128/128 127/127/127 126/126/126
f 129/129/129 127/127/127 128/128/128
f 130/130/130 129/129/129 128/128/128
f 131/131/131 129/129/129 130/130/130
f 132/132/132 131/131/131 130/130/130
f 133/133/133 131/131/131 132/132/132
f 134/134/134 133/133/133 132/132/132
f 135/135/135 133/133/133 134/134/134
f 136/136/136 135/135/135 134/134/134
f 137/137/137 135/135/135 136/136/136
f 138/138/138 137/137/137 136/136/136
f 139/139/139 137/137/137 138/138/138
f 140/140/140 139/139/139 138/138/138
f 141/141/141 139/139/139 140/140/140
f 142/142/142 141/141/141 140/140/140
f 143/143/143 141/141/141 142/142/142
f 144/144/144 143/143/143 142/142/142
f 145/145/145 143/143/143 144/144/144
f 146/146/146 145/145/145 144/144/144
f 147/147/147 145/145/145 146/146/146
f 148/148/148 147/147/147 146/146/146
f 149/149/149 147/147/147 148/148/148
f 150/150/150 149/149/149 148/148/148
f 151/151/151 149/149/149 150/150/150
f 152/152/152 151/151/151 150/150/150
f 153/153/153 151/151/151 152/152/152
f 154/154/154 153/153/153 152/152/152
f 155/155/155 153/153/153 154/154/154
f 156/156/156 155/155/155 154/154/154
f 157/157/157 155/155/155 156/156/156
f 158/158/158 157/157/157 156/156/156
f 159/159/159 157/157/157 158/158/158
f 160/160/160 159/159/159 158/158/158
f 161/161/161 159/159/159 160/160/160
f 162/162/162 161/161/161 160/160/160
f 163/163/163 161/161/161 162/162/162
f 164/164/164 163/163/163 162/162/162
f 165/165/165 163/163/163 164/164/164
f 166/166/166 165/165/165 164/164/164
f 167/167/167 165/165/165 166/166/166
f 168/168/168 167/167/167 166/166/166
f 169/169/169 167/167/167 168/168/168
f 170/170/170 169/169/169 168/168/168
f 124/124/124 169/169/169 170/170/170
f 123/123/123 124/124/124 170/170/170
