# Export of towers
# from Aaro4130 OBJ Exporter v2.0
mtllib SniperTowerProjectile.mtl
g PeasProjectile
v 0.02958366 -0.102481 -0.05124044
v 0.05124047 -0.05916739 -0.08875132
v -0.02958372 -0.102481 -0.05124044
v -0.05124047 -0.05916739 -0.08875132
v -0.05916741 -0.102481 0
v -0.1024809 -0.05916739 0
v -0.02958372 -0.102481 0.05124044
v -0.05124047 -0.05916739 0.08875132
v 0.02958366 -0.102481 0.05124044
v 0.05124047 -0.05916739 0.08875132
v 0.05916736 -0.102481 0
v 0.1024809 -0.05916739 0
v 0.02958366 -0.102481 -0.05124044
v 0.05124047 -0.05916739 -0.08875132
v 0.05916741 0 -0.1024809
v -0.05916741 0 -0.1024809
v -0.1183348 0 0
v -0.05916742 0 0.1024809
v 0.05916735 0 0.1024809
v 0.1183348 0 0
v 0.05916741 0 -0.1024809
v 0.05124047 0.05916738 -0.08875132
v -0.05124047 0.05916738 -0.08875132
v -0.1024809 0.05916738 0
v -0.05124047 0.05916738 0.08875132
v 0.05124047 0.05916738 0.08875132
v 0.1024809 0.05916738 0
v 0.05124047 0.05916738 -0.08875132
v 0.02958366 0.1024809 -0.05124044
v -0.02958372 0.1024809 -0.05124044
v -0.05916741 0.1024809 0
v -0.02958372 0.1024809 0.05124044
v 0.02958366 0.1024809 0.05124044
v 0.05916736 0.1024809 0
v 0.02958366 0.1024809 -0.05124044
v -2.980232E-08 0.1183348 0
v -2.980232E-08 0.1183348 0
v -2.980232E-08 0.1183348 0
v -2.980232E-08 0.1183348 0
v -2.980232E-08 0.1183348 0
v -2.980232E-08 0.1183348 0
v -2.980232E-08 -0.1183348 0
v -2.980232E-08 -0.1183348 0
v -2.980232E-08 -0.1183348 0
v -2.980232E-08 -0.1183348 0
v -2.980232E-08 -0.1183348 0
v -2.980232E-08 -0.1183348 0
vn 0.1980982 -0.4667705 -0.2760721
vn 0.2772307 -0.254932 -0.4375913
vn -0.1400368 -0.4667705 -0.3095937
vn -0.2403497 -0.2549316 -0.4588847
vn -0.3381352 -0.46677 -0.0335217
vn -0.5175803 -0.2549323 -0.02129339
vn -0.1980983 -0.4667704 0.2760721
vn -0.2772307 -0.2549319 0.4375913
vn 0.1400367 -0.4667706 0.3095936
vn 0.2403499 -0.2549316 0.4588847
vn 0.338135 -0.4667701 0.03352166
vn 0.5175803 -0.2549325 0.02129346
vn 0.1980982 -0.4667705 -0.2760721
vn 0.2772307 -0.254932 -0.4375913
vn 0.2886756 1.433064E-07 -0.4999997
vn -0.2886757 -1.48248E-07 -0.4999997
vn -0.5773503 0 0
vn -0.2886757 1.087152E-07 0.4999996
vn 0.2886755 -1.581311E-07 0.4999998
vn 0.5773503 -8.23601E-08 1.251874E-07
vn 0.2886756 1.433064E-07 -0.4999997
vn 0.2403497 0.2549319 -0.4588846
vn -0.2772307 0.254932 -0.4375913
vn -0.5175803 0.2549325 0.02129338
vn -0.2403497 0.2549318 0.4588846
vn 0.2772308 0.254932 0.4375912
vn 0.5175802 0.2549326 -0.02129338
vn 0.2403497 0.2549319 -0.4588846
vn 0.1400366 0.4667708 -0.3095934
vn -0.1980982 0.4667705 -0.2760719
vn -0.338135 0.4667702 0.0335216
vn -0.1400367 0.4667708 0.3095934
vn 0.198098 0.4667707 0.2760718
vn 0.3381348 0.4667703 -0.03352154
vn 0.1400366 0.4667708 -0.3095934
vn 0 0.5773503 0
vn 0 0.5773503 0
vn 0 0.5773503 0
vn 0 0.5773503 0
vn 0 0.5773503 0
vn 0 0.5773503 0
vn 0 -0.5773503 0
vn 0 -0.5773503 0
vn 0 -0.5773503 0
vn 0 -0.5773503 0
vn 0 -0.5773503 0
vn 0 -0.5773503 0
vt 0.5130716 0.7592245
vt 0.5130716 0.7638191
vt 0.5144032 0.7592245
vt 0.5144032 0.7638191
vt 0.5157349 0.7592245
vt 0.5157349 0.7638191
vt 0.5170664 0.7592245
vt 0.5170664 0.7638191
vt 0.518398 0.7592245
vt 0.518398 0.7638191
vt 0.5197297 0.7592245
vt 0.5197297 0.7638191
vt 0.5210612 0.7592245
vt 0.5210612 0.7638191
vt 0.5130716 0.7684138
vt 0.5144032 0.7684138
vt 0.5157349 0.7684138
vt 0.5170664 0.7684138
vt 0.518398 0.7684138
vt 0.5197297 0.7684138
vt 0.5210612 0.7684138
vt 0.5130716 0.7730082
vt 0.5144032 0.7730082
vt 0.5157349 0.7730082
vt 0.5170664 0.7730082
vt 0.518398 0.7730082
vt 0.5197297 0.7730082
vt 0.5210612 0.7730082
vt 0.5130716 0.7776027
vt 0.5144032 0.7776027
vt 0.5157349 0.7776027
vt 0.5170664 0.7776027
vt 0.518398 0.7776027
vt 0.5197297 0.7776027
vt 0.5210612 0.7776027
vt 0.5137374 0.7821974
vt 0.515069 0.7821974
vt 0.5164006 0.7821974
vt 0.5177323 0.7821974
vt 0.5190639 0.7821974
vt 0.5203954 0.7821974
vt 0.5137374 0.7546299
vt 0.515069 0.7546299
vt 0.5164006 0.7546299
vt 0.5177323 0.7546299
vt 0.5190639 0.7546299
vt 0.5203954 0.7546299
usemtl PeasTower1
f 3/3/3 2/2/2 1/1/1
f 3/3/3 4/4/4 2/2/2
f 5/5/5 4/4/4 3/3/3
f 5/5/5 6/6/6 4/4/4
f 7/7/7 6/6/6 5/5/5
f 7/7/7 8/8/8 6/6/6
f 9/9/9 8/8/8 7/7/7
f 9/9/9 10/10/10 8/8/8
f 11/11/11 10/10/10 9/9/9
f 11/11/11 12/12/12 10/10/10
f 13/13/13 12/12/12 11/11/11
f 13/13/13 14/14/14 12/12/12
f 4/4/4 15/15/15 2/2/2
f 4/4/4 16/16/16 15/15/15
f 6/6/6 16/16/16 4/4/4
f 6/6/6 17/17/17 16/16/16
f 8/8/8 17/17/17 6/6/6
f 8/8/8 18/18/18 17/17/17
f 10/10/10 18/18/18 8/8/8
f 10/10/10 19/19/19 18/18/18
f 12/12/12 19/19/19 10/10/10
f 12/12/12 20/20/20 19/19/19
f 14/14/14 20/20/20 12/12/12
f 14/14/14 21/21/21 20/20/20
f 16/16/16 22/22/22 15/15/15
f 16/16/16 23/23/23 22/22/22
f 17/17/17 23/23/23 16/16/16
f 17/17/17 24/24/24 23/23/23
f 18/18/18 24/24/24 17/17/17
f 18/18/18 25/25/25 24/24/24
f 19/19/19 25/25/25 18/18/18
f 19/19/19 26/26/26 25/25/25
f 20/20/20 26/26/26 19/19/19
f 20/20/20 27/27/27 26/26/26
f 21/21/21 27/27/27 20/20/20
f 21/21/21 28/28/28 27/27/27
f 23/23/23 29/29/29 22/22/22
f 23/23/23 30/30/30 29/29/29
f 24/24/24 30/30/30 23/23/23
f 24/24/24 31/31/31 30/30/30
f 25/25/25 31/31/31 24/24/24
f 25/25/25 32/32/32 31/31/31
f 26/26/26 32/32/32 25/25/25
f 26/26/26 33/33/33 32/32/32
f 27/27/27 33/33/33 26/26/26
f 27/27/27 34/34/34 33/33/33
f 28/28/28 34/34/34 27/27/27
f 28/28/28 35/35/35 34/34/34
f 30/30/30 36/36/36 29/29/29
f 31/31/31 37/37/37 30/30/30
f 32/32/32 38/38/38 31/31/31
f 33/33/33 39/39/39 32/32/32
f 34/34/34 40/40/40 33/33/33
f 35/35/35 41/41/41 34/34/34
f 1/1/1 42/42/42 3/3/3
f 3/3/3 43/43/43 5/5/5
f 5/5/5 44/44/44 7/7/7
f 7/7/7 45/45/45 9/9/9
f 9/9/9 46/46/46 11/11/11
f 11/11/11 47/47/47 13/13/13
