# Export of tutorialLevel
# from Aaro4130 OBJ Exporter v2.0
mtllib layer0.mtl
g Collider
v 0.2500001 -0.5 -0.2500019
v 0.2499976 -0.5 20.25
v 0.2500001 0.5 -0.2500019
v 0.2499976 0.5 20.25
v 1.750001 0.5 -0.2500019
v 1.749998 0.5 20.25
v 1.750001 -0.5 -0.2500019
v 1.749998 -0.5 20.25
v 0.2500001 0.5 -0.2500019
v 0.2499976 0.5 20.25
v 1.750001 0.5 -0.2500019
v 1.749998 0.5 20.25
v 1.750001 -0.5 -0.2500019
v 0.2500001 -0.5 -0.2500019
v 0.2499976 -0.5 20.25
v 1.749998 -0.5 20.25
v 0.2499976 -0.5 20.25
v 0.2499976 0.5 20.25
v 1.749998 0.5 20.25
v 1.749998 -0.5 20.25
v 1.750001 -0.5 -0.2500019
v 1.750001 0.5 -0.2500019
v 0.2500001 0.5 -0.2500019
v 0.2500001 -0.5 -0.2500019
vn -0.07288945 0 -8.689098E-09
vn -0.07288945 0 -8.689098E-09
vn -0.07288945 0 -8.689098E-09
vn -0.07288945 0 -8.689098E-09
vn 0 0.04859295 0
vn 0 0.04859295 0
vn 0.07288945 0 8.689098E-09
vn 0.07288945 0 8.689098E-09
vn 0 0.04859295 0
vn 0 0.04859295 0
vn 0.07288945 0 8.689098E-09
vn 0.07288945 0 8.689098E-09
vn 0 -0.04859295 0
vn 0 -0.04859295 0
vn 0 -0.04859295 0
vn 0 -0.04859295 0
vn -1.18751E-07 0 0.9961557
vn -1.18751E-07 0 0.9961557
vn -1.18751E-07 0 0.9961557
vn -1.18751E-07 0 0.9961557
vn 1.18751E-07 0 -0.9961557
vn 1.18751E-07 0 -0.9961557
vn 1.18751E-07 0 -0.9961557
vn 1.18751E-07 0 -0.9961557
vt 0 0
vt 1 0
vt 0 1
vt 1 1
vt 0 1
vt 1 1
vt 0 1
vt 1 1
vt 0 0
vt 1 0
vt 0 0
vt 1 0
vt 0 0
vt 0 1
vt 1 1
vt 1 0
vt 0 0
vt 0 1
vt 1 1
vt 1 0
vt 0 0
vt 0 1
vt 1 1
vt 1 0
usemtl Default-Material
f 4/4/4 3/3/3 1/1/1
f 2/2/2 4/4/4 1/1/1
f 6/6/6 5/5/5 9/9/9
f 10/10/10 6/6/6 9/9/9
f 8/8/8 7/7/7 11/11/11
f 12/12/12 8/8/8 11/11/11
f 15/15/15 14/14/14 13/13/13
f 16/16/16 15/15/15 13/13/13
f 19/19/19 18/18/18 17/17/17
f 20/20/20 19/19/19 17/17/17
f 23/23/23 22/22/22 21/21/21
f 24/24/24 23/23/23 21/21/21
g wA04
v 9.500003 -0.5 -14.5
v 9.500003 -0.5 -13.5
v 9.500003 0.5 -14.5
v 9.500003 0.5 -13.5
v 10.5 0.5 -14.5
v 10.5 0.5 -13.5
v 10.5 -0.5 -14.5
v 10.5 -0.5 -13.5
v 9.500003 0.5 -14.5
v 9.500003 0.5 -13.5
v 10.5 0.5 -14.5
v 10.5 0.5 -13.5
v 10.5 -0.5 -14.5
v 9.500003 -0.5 -14.5
v 9.500003 -0.5 -13.5
v 10.5 -0.5 -13.5
v 9.500003 -0.5 -13.5
v 9.500003 0.5 -13.5
v 10.5 0.5 -13.5
v 10.5 -0.5 -13.5
v 10.5 -0.5 -14.5
v 10.5 0.5 -14.5
v 9.500003 0.5 -14.5
v 9.500003 -0.5 -14.5
vn -0.5773504 0 -6.882552E-08
vn -0.5773504 0 -6.882552E-08
vn -0.5773504 0 -6.882552E-08
vn -0.5773504 0 -6.882552E-08
vn 0 0.5773501 0
vn 0 0.5773501 0
vn 0.5773504 0 6.882552E-08
vn 0.5773504 0 6.882552E-08
vn 0 0.5773501 0
vn 0 0.5773501 0
vn 0.5773504 0 6.882552E-08
vn 0.5773504 0 6.882552E-08
vn 0 -0.5773501 0
vn 0 -0.5773501 0
vn 0 -0.5773501 0
vn 0 -0.5773501 0
vn -6.882552E-08 0 0.5773504
vn -6.882552E-08 0 0.5773504
vn -6.882552E-08 0 0.5773504
vn -6.882552E-08 0 0.5773504
vn 6.882552E-08 0 -0.5773504
vn 6.882552E-08 0 -0.5773504
vn 6.882552E-08 0 -0.5773504
vn 6.882552E-08 0 -0.5773504
vt 0 0
vt 1 0
vt 0 1
vt 1 1
vt 0 1
vt 1 1
vt 0 1
vt 1 1
vt 0 0
vt 1 0
vt 0 0
vt 1 0
vt 0 0
vt 0 1
vt 1 1
vt 1 0
vt 0 0
vt 0 1
vt 1 1
vt 1 0
vt 0 0
vt 0 1
vt 1 1
vt 1 0
usemtl Default-Material
f 28/28/28 27/27/27 25/25/25
f 26/26/26 28/28/28 25/25/25
f 30/30/30 29/29/29 33/33/33
f 34/34/34 30/30/30 33/33/33
f 32/32/32 31/31/31 35/35/35
f 36/36/36 32/32/32 35/35/35
f 39/39/39 38/38/38 37/37/37
f 40/40/40 39/39/39 37/37/37
f 43/43/43 42/42/42 41/41/41
f 44/44/44 43/43/43 41/41/41
f 47/47/47 46/46/46 45/45/45
f 48/48/48 47/47/47 45/45/45
g wA01
v 0.5 -0.5 -0.5000001
v 0.4999999 -0.5 0.5000002
v 0.5 0.5 -0.5000001
v 0.4999999 0.5 0.5000002
v 1.5 0.5 -0.5
v 1.5 0.5 0.5000004
v 1.5 -0.5 -0.5
v 1.5 -0.5 0.5000004
v 0.5 0.5 -0.5000001
v 0.4999999 0.5 0.5000002
v 1.5 0.5 -0.5
v 1.5 0.5 0.5000004
v 1.5 -0.5 -0.5
v 0.5 -0.5 -0.5000001
v 0.4999999 -0.5 0.5000002
v 1.5 -0.5 0.5000004
v 0.4999999 -0.5 0.5000002
v 0.4999999 0.5 0.5000002
v 1.5 0.5 0.5000004
v 1.5 -0.5 0.5000004
v 1.5 -0.5 -0.5
v 1.5 0.5 -0.5
v 0.5 0.5 -0.5000001
v 0.5 -0.5 -0.5000001
vn -0.5773504 0 -6.882552E-08
vn -0.5773504 0 -6.882552E-08
vn -0.5773504 0 -6.882552E-08
vn -0.5773504 0 -6.882552E-08
vn 0 0.5773501 0
vn 0 0.5773501 0
vn 0.5773504 0 6.882552E-08
vn 0.5773504 0 6.882552E-08
vn 0 0.5773501 0
vn 0 0.5773501 0
vn 0.5773504 0 6.882552E-08
vn 0.5773504 0 6.882552E-08
vn 0 -0.5773501 0
vn 0 -0.5773501 0
vn 0 -0.5773501 0
vn 0 -0.5773501 0
vn -6.882552E-08 0 0.5773504
vn -6.882552E-08 0 0.5773504
vn -6.882552E-08 0 0.5773504
vn -6.882552E-08 0 0.5773504
vn 6.882552E-08 0 -0.5773504
vn 6.882552E-08 0 -0.5773504
vn 6.882552E-08 0 -0.5773504
vn 6.882552E-08 0 -0.5773504
vt 0 0
vt 1 0
vt 0 1
vt 1 1
vt 0 1
vt 1 1
vt 0 1
vt 1 1
vt 0 0
vt 1 0
vt 0 0
vt 1 0
vt 0 0
vt 0 1
vt 1 1
vt 1 0
vt 0 0
vt 0 1
vt 1 1
vt 1 0
vt 0 0
vt 0 1
vt 1 1
vt 1 0
usemtl Default-Material
f 52/52/52 51/51/51 49/49/49
f 50/50/50 52/52/52 49/49/49
f 54/54/54 53/53/53 57/57/57
f 58/58/58 54/54/54 57/57/57
f 56/56/56 55/55/55 59/59/59
f 60/60/60 56/56/56 59/59/59
f 63/63/63 62/62/62 61/61/61
f 64/64/64 63/63/63 61/61/61
f 67/67/67 66/66/66 65/65/65
f 68/68/68 67/67/67 65/65/65
f 71/71/71 70/70/70 69/69/69
f 72/72/72 71/71/71 69/69/69
g wA03
v -11.5 -0.5 -14.5
v -11.5 -0.5 -13.5
v -11.5 0.5 -14.5
v -11.5 0.5 -13.5
v -10.5 0.5 -14.5
v -10.5 0.5 -13.5
v -10.5 -0.5 -14.5
v -10.5 -0.5 -13.5
v -11.5 0.5 -14.5
v -11.5 0.5 -13.5
v -10.5 0.5 -14.5
v -10.5 0.5 -13.5
v -10.5 -0.5 -14.5
v -11.5 -0.5 -14.5
v -11.5 -0.5 -13.5
v -10.5 -0.5 -13.5
v -11.5 -0.5 -13.5
v -11.5 0.5 -13.5
v -10.5 0.5 -13.5
v -10.5 -0.5 -13.5
v -10.5 -0.5 -14.5
v -10.5 0.5 -14.5
v -11.5 0.5 -14.5
v -11.5 -0.5 -14.5
vn -0.5773504 0 -6.882552E-08
vn -0.5773504 0 -6.882552E-08
vn -0.5773504 0 -6.882552E-08
vn -0.5773504 0 -6.882552E-08
vn 0 0.5773501 0
vn 0 0.5773501 0
vn 0.5773504 0 6.882552E-08
vn 0.5773504 0 6.882552E-08
vn 0 0.5773501 0
vn 0 0.5773501 0
vn 0.5773504 0 6.882552E-08
vn 0.5773504 0 6.882552E-08
vn 0 -0.5773501 0
vn 0 -0.5773501 0
vn 0 -0.5773501 0
vn 0 -0.5773501 0
vn -6.882552E-08 0 0.5773504
vn -6.882552E-08 0 0.5773504
vn -6.882552E-08 0 0.5773504
vn -6.882552E-08 0 0.5773504
vn 6.882552E-08 0 -0.5773504
vn 6.882552E-08 0 -0.5773504
vn 6.882552E-08 0 -0.5773504
vn 6.882552E-08 0 -0.5773504
vt 0 0
vt 1 0
vt 0 1
vt 1 1
vt 0 1
vt 1 1
vt 0 1
vt 1 1
vt 0 0
vt 1 0
vt 0 0
vt 1 0
vt 0 0
vt 0 1
vt 1 1
vt 1 0
vt 0 0
vt 0 1
vt 1 1
vt 1 0
vt 0 0
vt 0 1
vt 1 1
vt 1 0
usemtl Default-Material
f 76/76/76 75/75/75 73/73/73
f 74/74/74 76/76/76 73/73/73
f 78/78/78 77/77/77 81/81/81
f 82/82/82 78/78/78 81/81/81
f 80/80/80 79/79/79 83/83/83
f 84/84/84 80/80/80 83/83/83
f 87/87/87 86/86/86 85/85/85
f 88/88/88 87/87/87 85/85/85
f 91/91/91 90/90/90 89/89/89
f 92/92/92 91/91/91 89/89/89
f 95/95/95 94/94/94 93/93/93
f 96/96/96 95/95/95 93/93/93
g Collider
v 1.250007 -0.5 -0.7500019
v -11.25001 -0.5 -0.7500019
v 1.250007 0.5 -0.7500019
v -11.25001 0.5 -0.7500019
v 1.250007 0.5 0.750001
v -11.25001 0.5 0.750001
v 1.250007 -0.5 0.750001
v -11.25001 -0.5 0.750001
v 1.250007 0.5 -0.7500019
v -11.25001 0.5 -0.7500019
v 1.250007 0.5 0.750001
v -11.25001 0.5 0.750001
v 1.250007 -0.5 0.750001
v 1.250007 -0.5 -0.7500019
v -11.25001 -0.5 -0.7500019
v -11.25001 -0.5 0.750001
v -11.25001 -0.5 -0.7500019
v -11.25001 0.5 -0.7500019
v -11.25001 0.5 0.750001
v -11.25001 -0.5 0.750001
v 1.250007 -0.5 0.750001
v 1.250007 0.5 0.750001
v 1.250007 0.5 -0.7500019
v 1.250007 -0.5 -0.7500019
vn 0 0 -0.1187713
vn 0 0 -0.1187713
vn 0 0 -0.1187713
vn 0 0 -0.1187713
vn 0 0.0791807 0
vn 0 0.0791807 0
vn 0 0 0.1187713
vn 0 0 0.1187713
vn 0 0.0791807 0
vn 0 0.0791807 0
vn 0 0 0.1187713
vn 0 0 0.1187713
vn 0 -0.0791807 0
vn 0 -0.0791807 0
vn 0 -0.0791807 0
vn 0 -0.0791807 0
vn -0.98976 0 0
vn -0.98976 0 0
vn -0.98976 0 0
vn -0.98976 0 0
vn 0.98976 0 0
vn 0.98976 0 0
vn 0.98976 0 0
vn 0.98976 0 0
vt 0 0
vt 1 0
vt 0 1
vt 1 1
vt 0 1
vt 1 1
vt 0 1
vt 1 1
vt 0 0
vt 1 0
vt 0 0
vt 1 0
vt 0 0
vt 0 1
vt 1 1
vt 1 0
vt 0 0
vt 0 1
vt 1 1
vt 1 0
vt 0 0
vt 0 1
vt 1 1
vt 1 0
usemtl Default-Material
f 100/100/100 99/99/99 97/97/97
f 98/98/98 100/100/100 97/97/97
f 102/102/102 101/101/101 105/105/105
f 106/106/106 102/102/102 105/105/105
f 104/104/104 103/103/103 107/107/107
f 108/108/108 104/104/104 107/107/107
f 111/111/111 110/110/110 109/109/109
f 112/112/112 111/111/111 109/109/109
f 115/115/115 114/114/114 113/113/113
f 116/116/116 115/115/115 113/113/113
f 119/119/119 118/118/118 117/117/117
f 120/120/120 119/119/119 117/117/117
g wA02
v -11.5 -0.5 -0.5000012
v -11.5 -0.5 0.4999992
v -11.5 0.5 -0.5000012
v -11.5 0.5 0.4999992
v -10.5 0.5 -0.5000011
v -10.5 0.5 0.4999993
v -10.5 -0.5 -0.5000011
v -10.5 -0.5 0.4999993
v -11.5 0.5 -0.5000012
v -11.5 0.5 0.4999992
v -10.5 0.5 -0.5000011
v -10.5 0.5 0.4999993
v -10.5 -0.5 -0.5000011
v -11.5 -0.5 -0.5000012
v -11.5 -0.5 0.4999992
v -10.5 -0.5 0.4999993
v -11.5 -0.5 0.4999992
v -11.5 0.5 0.4999992
v -10.5 0.5 0.4999993
v -10.5 -0.5 0.4999993
v -10.5 -0.5 -0.5000011
v -10.5 0.5 -0.5000011
v -11.5 0.5 -0.5000012
v -11.5 -0.5 -0.5000012
vn -0.5773504 0 -6.882552E-08
vn -0.5773504 0 -6.882552E-08
vn -0.5773504 0 -6.882552E-08
vn -0.5773504 0 -6.882552E-08
vn 0 0.5773501 0
vn 0 0.5773501 0
vn 0.5773504 0 6.882552E-08
vn 0.5773504 0 6.882552E-08
vn 0 0.5773501 0
vn 0 0.5773501 0
vn 0.5773504 0 6.882552E-08
vn 0.5773504 0 6.882552E-08
vn 0 -0.5773501 0
vn 0 -0.5773501 0
vn 0 -0.5773501 0
vn 0 -0.5773501 0
vn -6.882552E-08 0 0.5773504
vn -6.882552E-08 0 0.5773504
vn -6.882552E-08 0 0.5773504
vn -6.882552E-08 0 0.5773504
vn 6.882552E-08 0 -0.5773504
vn 6.882552E-08 0 -0.5773504
vn 6.882552E-08 0 -0.5773504
vn 6.882552E-08 0 -0.5773504
vt 0 0
vt 1 0
vt 0 1
vt 1 1
vt 0 1
vt 1 1
vt 0 1
vt 1 1
vt 0 0
vt 1 0
vt 0 0
vt 1 0
vt 0 0
vt 0 1
vt 1 1
vt 1 0
vt 0 0
vt 0 1
vt 1 1
vt 1 0
vt 0 0
vt 0 1
vt 1 1
vt 1 0
usemtl Default-Material
f 124/124/124 123/123/123 121/121/121
f 122/122/122 124/124/124 121/121/121
f 126/126/126 125/125/125 129/129/129
f 130/130/130 126/126/126 129/129/129
f 128/128/128 127/127/127 131/131/131
f 132/132/132 128/128/128 131/131/131
f 135/135/135 134/134/134 133/133/133
f 136/136/136 135/135/135 133/133/133
f 139/139/139 138/138/138 137/137/137
f 140/140/140 139/139/139 137/137/137
f 143/143/143 142/142/142 141/141/141
f 144/144/144 143/143/143 141/141/141
g Collider
v 11.25002 -0.5 -14.75
v -11.25001 -0.5 -14.75
v 11.25002 0.5 -14.75
v -11.25001 0.5 -14.75
v 11.25002 0.5 -13.25
v -11.25001 0.5 -13.25
v 11.25002 -0.5 -13.25
v -11.25001 -0.5 -13.25
v 11.25002 0.5 -14.75
v -11.25001 0.5 -14.75
v 11.25002 0.5 -13.25
v -11.25001 0.5 -13.25
v 11.25002 -0.5 -13.25
v 11.25002 -0.5 -14.75
v -11.25001 -0.5 -14.75
v -11.25001 -0.5 -13.25
v -11.25001 -0.5 -14.75
v -11.25001 0.5 -14.75
v -11.25001 0.5 -13.25
v -11.25001 -0.5 -13.25
v 11.25002 -0.5 -13.25
v 11.25002 0.5 -13.25
v 11.25002 0.5 -14.75
v 11.25002 -0.5 -14.75
vn 0 0 -0.06645373
vn 0 0 -0.06645373
vn 0 0 -0.06645373
vn 0 0 -0.06645373
vn 0 0.04430243 0
vn 0 0.04430243 0
vn 0 0 0.06645373
vn 0 0 0.06645373
vn 0 0.04430243 0
vn 0 0.04430243 0
vn 0 0 0.06645373
vn 0 0 0.06645373
vn 0 -0.04430243 0
vn 0 -0.04430243 0
vn 0 -0.04430243 0
vn 0 -0.04430243 0
vn -0.996806 0 0
vn -0.996806 0 0
vn -0.996806 0 0
vn -0.996806 0 0
vn 0.996806 0 0
vn 0.996806 0 0
vn 0.996806 0 0
vn 0.996806 0 0
vt 0 0
vt 1 0
vt 0 1
vt 1 1
vt 0 1
vt 1 1
vt 0 1
vt 1 1
vt 0 0
vt 1 0
vt 0 0
vt 1 0
vt 0 0
vt 0 1
vt 1 1
vt 1 0
vt 0 0
vt 0 1
vt 1 1
vt 1 0
vt 0 0
vt 0 1
vt 1 1
vt 1 0
usemtl Default-Material
f 148/148/148 147/147/147 145/145/145
f 146/146/146 148/148/148 145/145/145
f 150/150/150 149/149/149 153/153/153
f 154/154/154 150/150/150 153/153/153
f 152/152/152 151/151/151 155/155/155
f 156/156/156 152/152/152 155/155/155
f 159/159/159 158/158/158 157/157/157
f 160/160/160 159/159/159 157/157/157
f 163/163/163 162/162/162 161/161/161
f 164/164/164 163/163/163 161/161/161
f 167/167/167 166/166/166 165/165/165
f 168/168/168 167/167/167 165/165/165
g Background_40x40
v 20 0.03035063 20.00001
v -20.00001 0.03035063 20
v -20 0.03035063 -20.00001
v 20.00001 0.03035063 -20
vn 0 0.5773501 0
vn 0 0.5773501 0
vn 0 0.5773501 0
vn 0 0.5773501 0
vt 1 1
vt 1 0
vt 0 0
vt 0 1
usemtl Background
f 171/171/171 170/170/170 169/169/169
f 172/172/172 171/171/171 169/169/169
g Collider
v -11.75 -0.5 -14.75
v -11.75 -0.5 0.750001
v -11.75 0.5 -14.75
v -11.75 0.5 0.750001
v -10.25 0.5 -14.75
v -10.25 0.5 0.750001
v -10.25 -0.5 -14.75
v -10.25 -0.5 0.750001
v -11.75 0.5 -14.75
v -11.75 0.5 0.750001
v -10.25 0.5 -14.75
v -10.25 0.5 0.750001
v -10.25 -0.5 -14.75
v -11.75 -0.5 -14.75
v -11.75 -0.5 0.750001
v -10.25 -0.5 0.750001
v -11.75 -0.5 0.750001
v -11.75 0.5 0.750001
v -10.25 0.5 0.750001
v -10.25 -0.5 0.750001
v -10.25 -0.5 -14.75
v -10.25 0.5 -14.75
v -11.75 0.5 -14.75
v -11.75 -0.5 -14.75
vn -0.09612622 0 -1.145914E-08
vn -0.09612622 0 -1.145914E-08
vn -0.09612622 0 -1.145914E-08
vn -0.09612622 0 -1.145914E-08
vn 0 0.06408412 0
vn 0 0.06408412 0
vn 0.09612622 0 1.145914E-08
vn 0.09612622 0 1.145914E-08
vn 0 0.06408412 0
vn 0 0.06408412 0
vn 0.09612622 0 1.145914E-08
vn 0.09612622 0 1.145914E-08
vn 0 -0.06408412 0
vn 0 -0.06408412 0
vn 0 -0.06408412 0
vn 0 -0.06408412 0
vn -1.184111E-07 0 0.9933042
vn -1.184111E-07 0 0.9933042
vn -1.184111E-07 0 0.9933042
vn -1.184111E-07 0 0.9933042
vn 1.184111E-07 0 -0.9933042
vn 1.184111E-07 0 -0.9933042
vn 1.184111E-07 0 -0.9933042
vn 1.184111E-07 0 -0.9933042
vt 0 0
vt 1 0
vt 0 1
vt 1 1
vt 0 1
vt 1 1
vt 0 1
vt 1 1
vt 0 0
vt 1 0
vt 0 0
vt 1 0
vt 0 0
vt 0 1
vt 1 1
vt 1 0
vt 0 0
vt 0 1
vt 1 1
vt 1 0
vt 0 0
vt 0 1
vt 1 1
vt 1 0
usemtl Default-Material
f 176/176/176 175/175/175 173/173/173
f 174/174/174 176/176/176 173/173/173
f 178/178/178 177/177/177 181/181/181
f 182/182/182 178/178/178 181/181/181
f 180/180/180 179/179/179 183/183/183
f 184/184/184 180/180/180 183/183/183
f 187/187/187 186/186/186 185/185/185
f 188/188/188 187/187/187 185/185/185
f 191/191/191 190/190/190 189/189/189
f 192/192/192 191/191/191 189/189/189
f 195/195/195 194/194/194 193/193/193
f 196/196/196 195/195/195 193/193/193
g wA00
v 0.4999981 -0.5 16.5
v 0.499998 -0.5 17.5
v 0.4999981 0.5 16.5
v 0.499998 0.5 17.5
v 1.499998 0.5 16.5
v 1.499998 0.5 17.5
v 1.499998 -0.5 16.5
v 1.499998 -0.5 17.5
v 0.4999981 0.5 16.5
v 0.499998 0.5 17.5
v 1.499998 0.5 16.5
v 1.499998 0.5 17.5
v 1.499998 -0.5 16.5
v 0.4999981 -0.5 16.5
v 0.499998 -0.5 17.5
v 1.499998 -0.5 17.5
v 0.499998 -0.5 17.5
v 0.499998 0.5 17.5
v 1.499998 0.5 17.5
v 1.499998 -0.5 17.5
v 1.499998 -0.5 16.5
v 1.499998 0.5 16.5
v 0.4999981 0.5 16.5
v 0.4999981 -0.5 16.5
vn -0.5773504 0 -6.882552E-08
vn -0.5773504 0 -6.882552E-08
vn -0.5773504 0 -6.882552E-08
vn -0.5773504 0 -6.882552E-08
vn 0 0.5773501 0
vn 0 0.5773501 0
vn 0.5773504 0 6.882552E-08
vn 0.5773504 0 6.882552E-08
vn 0 0.5773501 0
vn 0 0.5773501 0
vn 0.5773504 0 6.882552E-08
vn 0.5773504 0 6.882552E-08
vn 0 -0.5773501 0
vn 0 -0.5773501 0
vn 0 -0.5773501 0
vn 0 -0.5773501 0
vn -6.882552E-08 0 0.5773504
vn -6.882552E-08 0 0.5773504
vn -6.882552E-08 0 0.5773504
vn -6.882552E-08 0 0.5773504
vn 6.882552E-08 0 -0.5773504
vn 6.882552E-08 0 -0.5773504
vn 6.882552E-08 0 -0.5773504
vn 6.882552E-08 0 -0.5773504
vt 0 0
vt 1 0
vt 0 1
vt 1 1
vt 0 1
vt 1 1
vt 0 1
vt 1 1
vt 0 0
vt 1 0
vt 0 0
vt 1 0
vt 0 0
vt 0 1
vt 1 1
vt 1 0
vt 0 0
vt 0 1
vt 1 1
vt 1 0
vt 0 0
vt 0 1
vt 1 1
vt 1 0
usemtl Default-Material
f 200/200/200 199/199/199 197/197/197
f 198/198/198 200/200/200 197/197/197
f 202/202/202 201/201/201 205/205/205
f 206/206/206 202/202/202 205/205/205
f 204/204/204 203/203/203 207/207/207
f 208/208/208 204/204/204 207/207/207
f 211/211/211 210/210/210 209/209/209
f 212/212/212 211/211/211 209/209/209
f 215/215/215 214/214/214 213/213/213
f 216/216/216 215/215/215 213/213/213
f 219/219/219 218/218/218 217/217/217
f 220/220/220 219/219/219 217/217/217
g Collider
v -11.75 -0.5 -14.75
v -11.75 -0.5 0.750001
v -11.75 0.5 -14.75
v -11.75 0.5 0.750001
v -10.25 0.5 -14.75
v -10.25 0.5 0.750001
v -10.25 -0.5 -14.75
v -10.25 -0.5 0.750001
v -11.75 0.5 -14.75
v -11.75 0.5 0.750001
v -10.25 0.5 -14.75
v -10.25 0.5 0.750001
v -10.25 -0.5 -14.75
v -11.75 -0.5 -14.75
v -11.75 -0.5 0.750001
v -10.25 -0.5 0.750001
v -11.75 -0.5 0.750001
v -11.75 0.5 0.750001
v -10.25 0.5 0.750001
v -10.25 -0.5 0.750001
v -10.25 -0.5 -14.75
v -10.25 0.5 -14.75
v -11.75 0.5 -14.75
v -11.75 -0.5 -14.75
vn -0.09612622 0 -1.145914E-08
vn -0.09612622 0 -1.145914E-08
vn -0.09612622 0 -1.145914E-08
vn -0.09612622 0 -1.145914E-08
vn 0 0.06408412 0
vn 0 0.06408412 0
vn 0.09612622 0 1.145914E-08
vn 0.09612622 0 1.145914E-08
vn 0 0.06408412 0
vn 0 0.06408412 0
vn 0.09612622 0 1.145914E-08
vn 0.09612622 0 1.145914E-08
vn 0 -0.06408412 0
vn 0 -0.06408412 0
vn 0 -0.06408412 0
vn 0 -0.06408412 0
vn -1.184111E-07 0 0.9933042
vn -1.184111E-07 0 0.9933042
vn -1.184111E-07 0 0.9933042
vn -1.184111E-07 0 0.9933042
vn 1.184111E-07 0 -0.9933042
vn 1.184111E-07 0 -0.9933042
vn 1.184111E-07 0 -0.9933042
vn 1.184111E-07 0 -0.9933042
vt 0 0
vt 1 0
vt 0 1
vt 1 1
vt 0 1
vt 1 1
vt 0 1
vt 1 1
vt 0 0
vt 1 0
vt 0 0
vt 1 0
vt 0 0
vt 0 1
vt 1 1
vt 1 0
vt 0 0
vt 0 1
vt 1 1
vt 1 0
vt 0 0
vt 0 1
vt 1 1
vt 1 0
usemtl Default-Material
f 224/224/224 223/223/223 221/221/221
f 222/222/222 224/224/224 221/221/221
f 226/226/226 225/225/225 229/229/229
f 230/230/230 226/226/226 229/229/229
f 228/228/228 227/227/227 231/231/231
f 232/232/232 228/228/228 231/231/231
f 235/235/235 234/234/234 233/233/233
f 236/236/236 235/235/235 233/233/233
f 239/239/239 238/238/238 237/237/237
f 240/240/240 239/239/239 237/237/237
f 243/243/243 242/242/242 241/241/241
f 244/244/244 243/243/243 241/241/241
